<svg xmlns="http://www.w3.org/2000/svg" viewBox="349 629.7 145 242.9">
  <title>Bermuda cargo beige</title>
  <g id="garment">
    <path class="c-main c-stroke" d="M400.3,778.8C390.9,778.4 385.9,777.9 377.5,776.5C374.4,775.9 371.1,775.5 370.2,775.5C369.2,775.5 368,775.2 367.5,774.9C367,774.5 365.4,774 364,773.6C362.5,773.3 360.5,772.6 359.5,772.1L357.6,771.1L358,768.5C358.1,767 358.4,764.2 358.6,762.3C359,757.6 358.3,757.7 371.3,760C389.4,763.3 389.7,763.1 391.8,747C392.4,741.9 393.2,736.5 393.5,735C393.8,733.6 393.9,731.3 393.8,730.1C393.7,728.8 394,725.5 394.4,722.8C396,713.5 396.7,714.3 385.1,712.5C377.9,711.4 376.4,711 375.5,710.1C374.9,709.5 374.2,709 373.9,709C372.9,709 373.3,706.9 378.7,687.8C381.8,676.6 384.6,666.6 384.9,665.6C385.6,663.1 386.7,662.8 392.1,663.6C414.3,667 450.6,666.6 468.3,662.9C469.6,662.6 471.8,662.2 473.3,662.1L476,661.8L476.5,663.4C477.3,665.9 482.8,707.1 482.5,708.4C482.4,709 482.8,714.9 483.4,721.5C484.1,728 484.8,735.9 485.1,738.9C485.4,741.9 485.9,747.6 486.3,751.5C488.3,771.7 488.7,770.3 479.4,772.9C476.9,773.6 474.6,774.4 474.3,774.7C474,774.9 473.4,775 473,774.9C472.6,774.7 469.7,774.9 466.5,775.4C458.2,776.5 434.8,776.5 430.7,775.4L427.9,774.6L426.4,776C424,778.3 414.1,779.4 400.3,778.8Z"/>
    <path class="c-skin c-stroke" d="M378.9,822.3C374.5,821.6 364.3,819.2 363.9,818.8C363.7,818.6 363.7,817 363.9,815.2C364.2,813.3 364.8,807.7 365.4,802.6C366.5,791.5 368.4,777.5 368.9,776.3C369.4,775.3 370.6,775.3 377.6,776.5C385.7,777.9 395.6,778.8 402.5,778.8C411.1,778.8 410.5,777 408.1,796.2C406,813.9 404.9,822.2 404.6,822.5C404,823.1 382.5,822.9 378.9,822.3Z"/>
    <path class="c-skin c-stroke" d="M445.2,822C443.2,821.8 440.4,821.5 438.8,821.3L435.9,820.9L435.6,816.6C434.5,802.5 433.9,778.2 434.7,777C435,776.5 438,776.4 448.1,776.3C456.8,776.2 463,775.9 466.7,775.3C473.7,774.4 473.5,774.3 473.9,778.3C474.3,783.1 475.3,806.3 475.3,813.3L475.4,819.5L470.2,820.5C461.4,822.2 452.3,822.8 445.2,822Z"/>
    <path class="c-under c-stroke" d="M443.6,866.7C440.8,866.2 434.9,863.4 433.4,861.9C431.5,859.8 432.8,851 435.4,848.5L437.3,846.7L436.9,840.2C436.8,836.6 436.4,831 436.2,827.8C435.7,820.6 435.5,820.8 441,821.5C443.5,821.8 446.8,822.2 448.5,822.3C452.6,822.7 463.4,821.8 469.8,820.6C476.2,819.3 475.9,818.9 476.3,829.2L476.7,837.3L477.9,837.5C490,840.1 489,849.2 476.4,850.9C474.2,851.2 474.2,851.2 472.8,854.2C468.6,862.8 455.1,868.6 443.6,866.7Z"/>
    <path class="c-under c-stroke" d="M394.2,862.9C391.2,862.4 387.9,860.3 386.1,857.8L384.6,855.9L380.6,855.8C376.7,855.8 376.5,855.9 374.2,857.5C368.3,861.8 362,862.5 356.1,859.7C354.4,858.8 353,857.9 353,857.5C353,855.8 355.7,851.9 358.1,850C359.9,848.6 360.8,847.6 360.9,846.8C360.9,846.1 361.1,843.7 361.3,841.3C361.5,839 362.1,833.1 362.6,828.2C363.1,823.4 363.5,819.4 363.5,819.3C363.5,819 365.5,819.4 370.8,820.6C379.7,822.7 384.3,823.2 394.3,822.9C399.2,822.8 403.4,822.8 403.7,822.9C404.5,823.2 404.5,827 403.6,834.4C403.2,837.7 402.8,842.5 402.6,845.2L402.3,850.1L404.1,852.3C405.9,854.5 407.7,858.7 407.7,860.8C407.7,862.7 399.8,864 394.2,862.9Z"/>
    <path class="c-trim c-stroke" d="M379.9,761.4C378.8,761.3 374.9,760.6 371.1,760C367.3,759.3 363,758.6 361.6,758.4C356.8,757.9 354.8,753.7 356.6,748C356.7,747.6 357.4,743.6 358,739.1C358.7,734.7 359.4,730.6 359.5,730C359.9,728.5 361.2,728.3 365.4,729.2C371.9,730.5 377.5,731.3 383,731.6L388.4,731.9L390.4,729.9C393.6,726.5 394.8,728.7 393.4,735.4C393.2,736.7 392.4,741.9 391.8,747C389.8,761.8 389.3,762.5 379.9,761.4Z"/>
    <path class="c-trim c-stroke" d="M379.6,731.4C376.9,731.2 369.9,730.1 365.4,729.2C363.4,728.8 361.4,728.5 360.9,728.6C357.8,729 357.7,723 360.7,714.2C362.3,709.4 361.8,709.7 368.7,709.3C374.2,709 374.5,709.1 375.5,710.1C376.4,711 378,711.4 385.1,712.5C396.7,714.3 396,713.6 394.5,722.1L393.7,726.8L391.1,729.3L388.4,731.8L385.1,731.7C383.3,731.7 380.8,731.5 379.6,731.4Z"/>
    <path class="c-open c-stroke" d="M424.8,770.7C425.2,770.2 426,778.4 427.6,767.4C429.3,756.5 431.9,716.9 434.8,705.2C437.6,693.5 443.1,698.4 444.7,697.1"/>
    <path class="c-open c-stroke c-hair" d="M444.3,692.3C444.6,691.5 445.8,690.4 446.2,687.1C446.6,683.8 446.6,674.8 446.6,672.4"/>
  </g>
  <g id="underlay">
    <path class="c-main c-stroke" d="M390.4,694.9C390.2,694.7 390.1,687.1 390.1,677.9L390.1,661.2L394.3,647.4L398.4,633.7L432.9,633.7L467.3,633.7L471.4,647.4L475.6,661.2L475.5,678.1L475.4,695L433.1,695.1C409.8,695.1 390.6,695.1 390.4,694.9Z"/>
  </g>
</svg>
