<svg xmlns="http://www.w3.org/2000/svg" viewBox="234 165 316 742" width="316" height="742" role="img" aria-labelledby="t">
  <title id="t">Ragazza</title>
  <style>
    /* Ogni colore è una variabile CSS con un valore di default: il file funziona da solo
       e il visualizzatore può ricolorare le parti sovrascrivendo le variabili. */
    .c-stroke   { stroke: var(--outline, #15100c); stroke-width: var(--line-w, 5.4); stroke-linecap: round; stroke-linejoin: round }
    .c-fine     { stroke-width: calc(var(--line-w, 5.4) * 0.75) }
    .c-hair     { stroke-width: calc(var(--line-w, 5.4) * 0.5) }
    .c-open     { fill: none }
    .c-skin     { fill: var(--skin, #fec39c) }
    .c-shirt    { fill: var(--shirt, #f5f1ee) }
    .c-pants    { fill: var(--pants, #625851) }
    .c-upper-l  { fill: var(--shoe-upper-l, #a38dbc) }
    .c-upper-r  { fill: var(--shoe-upper-r, #a18ab6) }
    .c-toe      { fill: var(--shoe-toe, #fbfbfb) }
    .c-tongue   { fill: var(--shoe-tongue, #b19dc3) }
    .c-lace     { fill: var(--shoe-lace, #f2f2f2) }
    .c-sole     { fill: var(--shoe-sole, #fbfbfb) }
    .c-eye      { fill: var(--eye, #1a1613) }
    .c-dot      { fill: var(--outline, #15100c) }
    .c-hair-spettinati { fill: var(--hair, #462e21) }
    .c-hair-coda { fill: var(--hair, #683a26) }
    .c-hair-chignon { fill: var(--hair, #39241c) }
    .c-hair-ciuffo-scuro { fill: var(--hair, #362b26) }
    .c-hair-ciuffo-castano { fill: var(--hair, #5d3523) }

    /* Capelli: uno stile alla volta (default: chignon). Il visualizzatore sceglie lo stile con
       --show-hair-NOME (inline | none) e può nascondere tutto con --show-hair. */
    #hair { display: var(--show-hair, inline) }
    #hair-spettinati { display: var(--show-hair-spettinati, none) }
    #hair-coda { display: var(--show-hair-coda, none) }
    #hair-chignon { display: var(--show-hair-chignon, inline) }
    #hair-ciuffo-scuro { display: var(--show-hair-ciuffo-scuro, none) }
    #hair-ciuffo-castano { display: var(--show-hair-ciuffo-castano, none) }

    /* Vestiti: uno per tipo alla volta (default: felpa-cappuccio + jeans-scuri). Il visualizzatore sceglie con
       --show-top-NOME / --show-bottom-NOME (inline | none); "base" è la maglietta e i pantaloni della sagoma.
       Ruoli dei colori: main = --shirt / --pants, e poi trim, accent, under. */
    #top-maglietta-fiore .c-main { fill: var(--shirt, #faa8bd) }
    #top-maglietta-fiore .c-accent { fill: var(--shirt-accent, #fdfbf9) }
    #top-maglietta-fiore .c-accent2 { fill: var(--shirt-accent2, #fdb56f) }
    #top-felpa-cappuccio .c-main { fill: var(--shirt, #baa0cb) }
    #top-felpa-cappuccio .c-accent { fill: var(--shirt-accent, #c6adda) }
    #top-felpa-cappuccio .c-under { fill: var(--shirt-under, #f2f2f2) }
    #top-top-corto-under .c-main, #top-top-corto .c-main { fill: var(--shirt, #3b3835) }
    #top-maglietta-v .c-main { fill: var(--shirt, #6b6e53) }
    #top-cardigan .c-main { fill: var(--shirt, #a67a84) }
    #top-cardigan .c-under { fill: var(--shirt-under, #f9efe5) }
    #bottom-pantaloncini-under .c-main, #bottom-pantaloncini .c-main { fill: var(--pants, #6c88a4) }
    #bottom-pantaloncini-under .c-trim, #bottom-pantaloncini .c-trim { fill: var(--pants-trim, #97aec6) }
    #bottom-pantaloncini-under .c-under, #bottom-pantaloncini .c-under { fill: var(--pants-under, #faf9f9) }
    #bottom-jeans-scuri-under .c-main, #bottom-jeans-scuri .c-main { fill: var(--pants, #565f6d) }
    #bottom-jeans-a-zampa .c-main { fill: var(--pants, #889eb4) }
    #bottom-pantaloni-neri-under .c-main, #bottom-pantaloni-neri .c-main { fill: var(--pants, #3d3d3d) }
    #bottom-pantaloni-marroni .c-main { fill: var(--pants, #685b52) }
    #torso { display: var(--show-top-base, none) }
    #top-maglietta-fiore { display: var(--show-top-maglietta-fiore, none) }
    #top-felpa-cappuccio { display: var(--show-top-felpa-cappuccio, inline) }
    #top-top-corto, #top-top-corto-under { display: var(--show-top-top-corto, none) }
    #top-maglietta-v { display: var(--show-top-maglietta-v, none) }
    #top-cardigan { display: var(--show-top-cardigan, none) }
    #pants { display: var(--show-bottom-base, none) }
    #bottom-pantaloncini, #bottom-pantaloncini-under { display: var(--show-bottom-pantaloncini, none) }
    #bottom-jeans-scuri, #bottom-jeans-scuri-under { display: var(--show-bottom-jeans-scuri, inline) }
    #bottom-jeans-a-zampa { display: var(--show-bottom-jeans-a-zampa, none) }
    #bottom-pantaloni-neri, #bottom-pantaloni-neri-under { display: var(--show-bottom-pantaloni-neri, none) }
    #bottom-pantaloni-marroni { display: var(--show-bottom-pantaloni-marroni, none) }
    /* Alcuni capi disegnano le braccia al posto di quelle della sagoma (spalle e braccia scoperte): le mettono nel gruppo
       .g-arms, e --show-body-arms nasconde quelle della sagoma. --show-arms (inline | none) nasconde tutte le braccia. */
    #arm-left, #arm-right { display: var(--show-body-arms, inline) }
    .g-arms { display: var(--show-arms, inline) }

    /* Idle: respiro (busto e braccia si allungano di ~1%, la testa segue con un leggero ritardo)
       + battito di ciglia. Solo transform, ancorati alla base di ogni gruppo.
       --idle-n = 0 spegne tutto; --idle-delay sfasa più istanze tra loro. */
    .c-idle-torso, .c-idle-arm, .c-idle-head, .c-blink {
      transform-box: fill-box;
      animation-duration: 1.9s;
      animation-timing-function: ease-in-out;
      animation-direction: alternate;
      animation-iteration-count: var(--idle-n, infinite);
      animation-delay: var(--idle-delay, 0s);
    }
    .c-idle-torso { transform-origin: 50% 100%; animation-name: idle-breathe }
    .c-idle-arm   { transform-origin: 50% 100%; animation-name: idle-arms }
    .c-idle-head  { transform-origin: 50% 100%; animation-name: idle-head; animation-delay: calc(var(--idle-delay, 0s) + 0.14s) }
    .c-blink      { transform-origin: 50% 50%; animation-name: idle-blink; animation-duration: 4.6s; animation-direction: normal; animation-timing-function: linear }
    @keyframes idle-breathe { from { transform: scaleY(1) }   to { transform: scaleY(1.014) } }
    @keyframes idle-arms    { from { transform: scaleY(1) }   to { transform: scaleY(1.01) } }
    @keyframes idle-head    { from { transform: translateY(0) rotate(0deg) } to { transform: translateY(-2px) rotate(-0.5deg) } }
    @keyframes idle-blink   { 0%, 90%, 100% { transform: scaleY(1) } 94% { transform: scaleY(0.08) } }
    @media (prefers-reduced-motion: reduce) {
      .c-idle-torso, .c-idle-arm, .c-idle-head, .c-blink { animation-iteration-count: var(--idle-n, 0) }
    }
  </style>

  <!-- Coordinate dei fogli di riferimento: stessa scala e stessa linea del suolo (y = 900) per tutte le sagome, quindi le altezze restano confrontabili. -->
  <g id="arm-right" class="c-idle-arm">
    <path class="c-skin c-stroke" d="M475.1,696C472,695.5 472,695.9 472.3,677.5C472.7,656.7 470.7,627.5 468.7,624.4C468.4,624 468.2,621.7 468.2,619.2C468.2,614.7 468,613.8 464.2,600.9C460.8,588.9 459.4,580.1 458.9,566.7C458.7,562.1 461.1,558.5 464.4,558.5C465.4,558.5 467.1,558.3 468.2,558C471.2,557.1 471.1,556.9 475,579.8C476.1,586.4 477.6,593.4 478.2,595.5C478.9,597.6 479.6,600.3 479.9,601.5C482.2,610.9 484.8,622.8 487.3,634.5C489.6,645.7 490.4,648.7 491.5,650.6C504.6,672.1 494.7,699.5 475.1,696Z"/>
  </g>
  <!-- Pantaloncini risvoltati: parti sotto i pantaloni -->
  <g id="bottom-pantaloncini-under">
    <path class="c-main c-stroke" d="M408.5,753.5C408,752.6 405.4,751.2 401.5,749.8C393.4,746.6 378.4,738 370.3,731.9C369.4,731.3 367.5,730.8 366,730.8C361.8,730.9 356.4,725.1 356.2,719.7C355.9,713.9 357.2,701.7 358.7,698.7C359.4,697.2 359.9,694.9 359.7,693.7C359.4,690.5 361.2,688.9 364.6,689.7C365.9,690.1 367.6,690.3 368.5,690.3L369.9,690.1L363.3,640.4L368.5,592.1L414.8,619L461.6,613.4L464.5,645.5L464.3,668L466.2,665.9C471.5,657.6 471.5,657.6 468.3,661C467.8,665.8 467.3,673.7 467.3,677.4C467.3,681.3 467.3,689.3 467.3,695.2C467.5,703.2 467.9,706.2 468.8,707.9C470,710.3 471.6,727.5 471.1,732.4C470.8,736.5 466,742.1 462.2,743.5C460.4,744 456.8,745.9 454.1,747.6C438.3,756.1 423.3,754.6 422.1,747.7C421.2,743 418.2,742.6 417.9,747.1C417.6,752.4 416.2,754.2 412.7,754.4C411.5,754.5 410.4,754.5 410,754.6C409.6,754.6 408.9,754.1 408.5,753.5Z"/>
  </g>
  <!-- Jeans scuri: parti sotto i pantaloni -->
  <g id="bottom-jeans-scuri-under">
    <path class="c-main c-stroke" d="M429.1,867.9C428.6,867.3 428,866.2 427.9,865.4C427.7,864.6 427.2,862.4 426.7,860.5C425.7,857.1 425.7,856.9 426.5,853.5C427.5,849 427.5,846 426.3,830.3C425.2,815 425,775.5 426,765.1C426.7,757.8 426,741.6 424.2,724.8C423.9,722.3 423.6,718.3 423.4,715.7C422.8,707.6 419.6,706 418,713.1C417.7,714.1 416.6,718.7 415.5,723.1C414.5,727.6 413.4,732.2 413.1,733.5C412.8,734.9 412.4,736.5 412.2,737.1C411.4,739.6 409.3,748.6 408.6,752.8C408.2,755.2 407.3,758.7 406.6,760.7C402.1,773.9 398,839.5 401,851.1C404,862.9 399.5,871.1 393.2,865.2C391.8,863.9 390.4,862.8 390.1,862.8C389.8,862.8 388.8,862.3 388,861.6C381.8,856.8 362.7,855.9 357.9,860.1C357.5,860.5 356.7,860.8 356.2,860.8C355.3,860.8 352.9,861.9 347.2,864.9C344,866.6 343.3,866.4 342.3,863.2C340.8,858.4 341.1,852.4 342.9,849.1C345.1,845.1 345.3,844.4 347.4,829.9C350.3,810.3 354.5,788.1 358.2,772C359.8,765.6 360.9,760.6 361.8,757.1C362.3,755.1 362.9,752.2 363.2,750.6C363.6,749.1 364,747.1 364.3,746.3C365.2,743.1 365.7,733.5 365.7,715.9C365.7,693.1 365.7,693.3 368.2,688.1L370.2,684L370.2,674.2L370.2,664.5L368.6,659.8C366.7,653.8 366.2,649.2 367.2,646C367.7,644.8 368.1,642.6 368.3,641.2C368.8,637.2 369.9,636.7 374.4,638.2L376.2,638.8L376.3,624.5L376.4,609.5L419.9,611L463.3,607.8L463.5,624.1C463.7,632.7 463.9,639.3 464.1,639.3C464.3,639.1 465.8,638.5 467.3,637.8C468.9,637 470.4,636.3 470.6,636.4C472.1,636.7 472.9,648.5 472.9,670.1C472.9,690.9 472.5,696.5 469.9,721C468.4,734.8 468.1,752.7 469.2,763.6C471.1,782.4 474,804.3 476.8,821.1C477.7,826.6 478.6,832.3 478.9,833.8C479.4,837.1 480.4,839.8 482.2,841.9C484,844.2 484.6,846.3 484.6,849.7C484.6,854.4 484.5,854.5 478.5,854.2C474.3,853.9 473,854 471.2,854.7C470,855.1 467.9,855.7 466.4,855.9C464,856.3 462.7,856.8 460.2,858.3C459.8,858.6 458.7,859.1 457.8,859.6C456.8,860 454,861.4 451.5,862.7C444.6,866.1 435.2,869 430.3,869C430.2,869 429.7,868.5 429.1,867.9Z"/>
  </g>
  <!-- Pantaloni neri larghi: parti sotto i pantaloni -->
  <g id="bottom-pantaloni-neri-under">
    <path class="c-main c-stroke" d="M395.4,868.2C393.5,866.2 389.2,863.2 388.4,863.2C388,863.2 387,862.6 386.2,862C382.2,858.9 371,857.5 362.3,858.8C357.2,859.7 356.8,859.8 356.3,860.4C356.1,860.6 355.6,860.8 355.3,860.8C354.2,860.8 347.9,863.2 345.7,864.3L343.4,865.5L342.7,864.6C339.9,861.2 339.7,855.6 342.1,849.2C343.5,845.3 344.2,842.6 345.5,835.2C349.2,814 349.7,810.8 350.9,805.1C351.6,801.8 352.4,797.7 352.7,796C353,794.2 353.9,789.7 354.6,786C362.5,748.7 363,746.1 363,740.1C363,735.5 362.2,725.4 361.2,716.2C360.8,711.7 359.9,700.8 360,699.6C360,698.9 360.4,698.4 361.4,697.9C365.2,696.1 367.4,692 367,687.9C366.8,686.6 367.1,684.8 367.8,682.4C370.8,670.6 369.9,660.9 365,650.7C363,646.7 363.3,645.1 367.1,630.2C369.4,621.3 370.7,617.2 372.1,616L372.9,615.3L372.9,605.3L372.6,594.4L419.4,590.8L468.1,593.7L469.2,608.5L469.9,621L471.1,621.2C472.5,621.5 472.9,622.3 474.6,627.6C478.5,651.1 476.4,676.2 472.2,717.8C471.4,725.3 470.6,733.8 470.5,736.7C469.8,751.8 474.1,786 481.2,824.1C484,839.7 483.9,839.2 485.9,843C489.3,849.3 488.1,856.6 484,854.6C480.6,852.8 467.4,855 463.5,858C462.8,858.5 462.1,858.9 461.7,858.9C461.5,858.9 459.9,859.6 458.2,860.4C453.3,862.8 449,864.6 447.1,865.3C442.6,866.8 433.9,868.4 430.4,868.4C429.6,868.4 428.6,868.6 428.1,868.9C427.5,869.2 427.2,869.1 426.8,868.6C426.5,868.2 425.5,867.6 424.6,867.3C421.3,866.1 420,862 420.8,855.2C421.1,852.1 421.3,848.1 421.1,842.4C420.7,822.7 421.4,781.5 422.5,765.8C423.4,752.6 421.4,726.2 419.3,724.9C417.4,723.7 416.1,728.1 412.3,749.3C411.9,751.6 411.2,755.1 410.8,757C409.5,762.8 409.4,763.4 408.5,770.4C405.4,794.2 403.7,815.8 403,838.6C402.8,846 403,850 403.8,857.8C404.6,865.4 399.2,872 395.4,868.2Z"/>
  </g>
  <!-- Top corto: parti sotto i pantaloni -->
  <g id="top-top-corto-under">
    <path class="c-skin c-stroke" d="M416.1,634.9C407.8,634.1 398.7,632.7 393.1,631.5C390.9,631.1 389,630.7 388.9,630.7C387.6,630.7 387.3,628.3 387.3,613.4L386.8,597.3L387.7,594.3C388.8,590.7 389.2,584.5 388.5,583.3C388.2,582.9 388.1,580.8 388.1,577.8L388,573.1L410.3,572.8C422.9,572.6 438.7,572.3 445.4,572C460.4,571.5 458.8,570.6 459,579.9C459.3,588.5 460.9,595 463.8,598.8C464.7,600.1 467.4,631.1 466.5,632C463,635.4 435.2,636.9 416.1,634.9Z"/>
  </g>
  <g id="pants">
    <path class="c-pants c-stroke" d="M432.2,884.7C431.9,884 432,882.4 432.8,874.7C433.1,872.3 433,872 431.6,870.7C427.9,867.2 426.2,857.6 428,851.4C429.2,847.5 429.2,847.4 428.6,835.9C427.1,808.7 427,801 427.1,777.8C427.2,758 427.1,751.2 426.4,742.8C424.3,718.1 424.4,718.5 422.6,718.5C421.3,718.5 419.6,720.2 419.2,722.1C419,723 418.5,724 418.1,724.3C417.5,724.7 417.2,725.8 417.2,727.8C417.1,732.1 416.5,734.6 415.2,736C414.3,737.1 414.1,737.8 414.1,740.8C414.1,742.7 413.7,745.5 413.3,747C412.8,748.5 412.1,751.7 411.7,754.1C411.3,756.5 410.2,760.9 409.2,763.9C408.3,766.8 407.5,769.8 407.5,770.6C407.5,771.3 407.1,774.8 406.5,778.3C402.7,803.4 400.9,843.2 403.2,851C405.2,857.5 403.9,867 400.7,869.9C399.3,871.1 399.7,877 401.2,877.9C402.2,878.5 403.4,880.7 403.6,882.2C404.1,886.5 392.8,884.2 387.1,878.9C381,873.2 379.3,872.3 374.4,872.1L369.9,871.9L365,874.4C362.3,875.8 358.9,877.8 357.6,878.7C348.8,885.1 336.4,884.4 341,877.9C341.6,877.2 342,876.3 342,875.9C342,875.5 342.8,874.1 343.8,872.6L345.7,869.9L344.8,867.6C342.3,860.5 342.6,854.8 345.8,848.6C347.6,844.9 348.1,843.1 349.2,836.8C350.7,828.4 351.4,824.7 353.3,815.5C357.9,793 359.9,783.9 363.5,769.8C370.5,742.7 370.1,745.6 369.8,720.4C369.7,709 369.4,698.6 369.3,697.2C369,695.1 369.1,694.1 370.2,691.7C373.4,684 374,672.9 371.5,664.8C368.6,655 368.3,647.6 370.5,639.5C372.7,631.4 373.7,628.2 374.3,627.8C375.5,627.2 377.1,625.3 377.5,624.1C378,622.9 380.8,622.9 382.2,624C384.6,625.7 397.3,629.1 406.9,630.5C425.8,633.2 445.2,631.1 461.6,624.5C468.6,621.8 468.6,621.9 470.2,633.9C472.4,649.7 473.4,691.5 471.8,696C471.6,696.7 470,711.6 469,722.2C468.7,725 468.2,730.1 467.8,733.5C467,740.3 467.4,759.3 468.4,767.2C468.7,769.5 469.3,774 469.7,777.2C472.1,796.1 476.9,825.3 479,833.2C479.5,835.1 480,837.4 480.2,838.1C480.4,838.9 481.3,840.4 482.3,841.4C485.3,844.8 486.1,847.4 485.9,852.9L485.8,857.7L488.6,859.6C490.2,860.7 491.5,861.7 491.5,861.9C491.5,862.2 492.5,862.7 493.8,863C496.7,863.8 496.8,864.1 494.6,866C491.1,869.2 489.1,869.7 481.3,869.6C474.3,869.5 473.3,869.7 471.2,871.5C469.8,872.8 459.4,878.5 454.8,880.6C449.1,883.1 446.5,883.8 439.8,884.7C432.6,885.7 432.5,885.7 432.2,884.7Z"/>
    <path class="c-open c-stroke" d="M425.5,715C425.1,714.3 423.4,712.6 423,711C422.6,709.4 422.2,711.4 423,705.5C423.8,699.6 425.8,681.4 428,675.5C430.2,669.6 435.1,670.9 436.5,670"/>
    <path class="c-open c-stroke c-fine" d="M387.5,846.5C385.8,846 380.6,843.8 377.5,843.5C374.4,843.2 370.4,844.3 369,844.5"/>
    <path class="c-open c-stroke c-fine" d="M454,848C455.7,847.2 461.4,843.9 464,843C466.6,842.1 468.6,842.6 469.5,842.5"/>
  </g>
  <!-- Pantaloncini risvoltati -->
  <g id="bottom-pantaloncini">
    <path class="c-main" d="M408.5,753.5C408,752.6 405.4,751.2 401.5,749.8C393.4,746.6 378.4,738 370.3,731.9C369.4,731.3 367.5,730.8 366,730.8C361.8,730.9 356.4,725.1 356.2,719.7C355.9,713.9 357.2,701.7 358.7,698.7C359.4,697.2 359.9,694.9 359.7,693.7C359.4,690.5 361.2,688.9 364.9,689.7C370.6,691.9 374.9,689.3 374.7,683.6C374.5,682.1 374.5,680.8 374.8,680.7C375.8,680.1 375.5,677.5 373.7,671.3C373,666.4 373,662.8 373.5,662.4C374.1,661.7 378,665.5 423.2,679.1L470.9,658.8L470.3,657.6C470,657 469,657.9 468.3,661C467.8,665.8 467.3,673.7 467.3,677.4C467.3,681.3 467.3,689.3 467.3,695.2C467.5,703.2 467.9,706.2 468.8,707.9C470,710.3 471.6,727.5 471.1,732.4C470.8,736.5 466,742.1 462.2,743.5C460.4,744 456.8,745.9 454.1,747.6C438.3,756.1 423.3,754.6 422.1,747.7C421.2,743 418.2,742.6 417.9,747.1C417.6,752.4 416.2,754.2 412.7,754.4C411.5,754.5 410.4,754.5 410,754.6C409.6,754.6 408.9,754.1 408.5,753.5Z"/>
    <path class="c-skin" d="M393.7,865.2C390,864.1 383.4,858.3 380.8,853.8C377.5,848.1 373.9,848.5 370.2,854.9C368.7,857.5 366.6,860.2 365.3,861.3C357.4,867.7 356.5,868.1 351.8,869.1C344.2,870.7 342,868.8 343.8,862.1C344.3,860.3 345.1,856.6 345.6,853.6C346.2,850.2 347.3,847.1 348.5,844.8C350.6,841.1 350.6,841.1 350.7,832C350.9,821.8 351.3,817.3 354.5,790C356.6,771.4 358.4,759.5 361.9,741.3L363.7,731.5L366,731C367.3,730.8 369.4,731.5 370.9,732.4C379.7,738.8 393.3,746.6 401.4,749.6C410,752.8 409.8,752.3 407.2,767.2C405.5,776.6 404,788 403.1,797.1C401.7,812.6 399.4,833.1 398.8,834C397.8,835.9 398.3,839.7 400.8,849.7C403.8,862.2 403.8,863.7 401.1,864.3C397.2,865.7 396,865.7 393.7,865.2Z"/>
    <path class="c-skin" d="M435.2,872C430.2,870 430.3,870.2 430.4,857.7C430.6,850 430.8,846.3 431.4,844.5C432.5,841.5 432.3,837.6 430.3,820.7C428.5,804.8 427.5,789.3 427.2,769.7C426.8,752 426.4,753.1 433.3,753.9C439.2,753.9 447.2,751.5 454,747.4C456.8,745.9 460.3,744.2 462,743.9L464.9,743.5L466.1,755.3C467.7,769.3 471.1,799.9 472.1,807.7C472.6,810.9 473,815.8 473.1,819C473.4,825.1 474.4,827.4 480.1,834.2C481.5,835.9 483.3,838.5 484.1,840.1L485.5,842.9L484,845.8C481.4,850.6 477.6,852.7 472.5,852.2L467.9,851.8L466.3,855.5C460.3,869.2 446,876.7 435.2,872Z"/>
    <path class="c-trim" d="M408.5,753.5C408,752.6 405.4,751.2 401.5,749.8C393.4,746.6 378.4,738 370.3,731.9C369.4,731.3 367.5,730.8 366,730.8C361.8,730.9 356.4,725.1 356.2,719.7C355.5,708.2 358.1,697 362.1,696.1C364.5,695.9 364.9,697 363.9,701.9C363.6,703.7 369.2,708.5 376.1,712.8C387.1,720.7 389.3,722.4 392.9,724.9C394.9,726.2 397.5,728.3 398.6,729.3C399.8,730.2 404.3,732.8 408.5,734.7C413.9,736.7 416.1,737.6 416.3,738.4C416.6,739.1 416.9,739.2 417.8,738.8C419.9,737.6 420.7,741.9 418.8,744.6C418.3,745.5 417.8,746.8 417.8,747.6C417.9,751.9 416.1,754.2 412.5,754.4C411.4,754.4 410.4,754.5 410,754.6C409.6,754.6 408.9,754.1 408.5,753.5ZM424.4,752.4C423.6,751.5 422.8,750.5 422.6,749.8C422.5,749.2 422,747.3 421.5,746C420,740.9 420.5,737.4 422.5,739.7C424,741.4 424,741.4 424.1,739.4C424.2,738 424.3,737.8 427.4,738.1C436.5,737.5 449.2,731 458.7,722.7C461.8,719.8 465.5,715.8 465.4,714.9C465.4,714.7 465,713.4 464.5,712.3C463.1,709.5 464.4,708 467.5,708.8L469.7,709.7L470.5,719.7C471.9,734.9 469.2,742.5 462.3,743.3C461,743.5 459.3,744.2 458.5,744.9C451.5,750.9 427.7,755.5 424.4,752.4Z" fill-rule="evenodd"/>
    <path class="c-under" d="M392.6,864.2C389,863.3 383.4,858.3 380.8,853.8C377.8,848.7 373.4,848.5 371.1,853.4C365.1,865.9 341.6,874.7 343.7,863.5C346.7,847.7 348.9,841.5 351.8,840.8C353.1,840.5 353.1,839.8 351.8,837.7C350.6,835.6 350.5,826.3 351.4,817C351.8,814.1 352.4,808.2 352.8,803.6C353.9,793.6 354.2,792.2 356.5,790.4C359,788.4 358.9,788.2 358.6,792.7C358.2,800.5 378.4,807.3 393,806.2L398.2,806.2L398.4,802.9C398.7,799.6 398.9,799.4 400.3,800.5C402.8,802.6 401.3,830.6 398.4,834.4C397.5,835.7 397.6,836.3 400.2,847.8C401.9,854.5 403,860.3 402.9,860.9C402.1,863.2 396.1,865.1 392.6,864.2Z"/>
    <path class="c-under" d="M435.2,872C430.2,870 430.3,870.2 430.4,857.7C430.6,850 430.8,846.3 431.4,844.5C432.5,841.5 432.3,837.4 430.2,820.9C428.5,806.2 428.5,806.8 430.2,803.6C431.7,800.6 432.5,800.8 432.6,804.7C432.7,810.9 451.1,811 462.6,804.9L466.9,802.8L466.7,799.2C466.6,796.3 466.8,795.9 467.7,796.2C471,797.5 471.9,801 472.8,815.8L473.3,824.5L475.7,828C477,830.1 479.4,833.4 481,835.4C487.5,844.1 482.6,853.3 472.3,852L467.9,851.8L466.3,855.5C460.3,869.2 446,876.7 435.2,872Z"/>
    <path class="c-open c-stroke" d="M408.5,753.5C408,752.6 405.4,751.2 401.5,749.8C393.4,746.6 378.4,738 370.3,731.9C369.4,731.3 367.5,730.8 366,730.8C361.8,730.9 356.4,725.1 356.2,719.7C355.9,713.9 357.2,701.7 358.7,698.7C359.4,697.2 359.9,694.9 359.7,693.7C359.4,690.5 361.2,688.9 364.9,689.7C370.6,691.9 374.9,689.3 374.7,683.6C374.5,682.1 374.5,680.8 374.8,680.7C375.8,680.1 375.5,677.5 373.7,671.3C373,666.4 373,662.8 373.5,662.4C374.1,661.7 378,665.5 423.2,679.1L470.9,658.8L470.3,657.6C470,657 469,657.9 468.3,661C467.8,665.8 467.3,673.7 467.3,677.4C467.3,681.3 467.3,689.3 467.3,695.2C467.5,703.2 467.9,706.2 468.8,707.9C470,710.3 471.6,727.5 471.1,732.4C470.8,736.5 466,742.1 462.2,743.5C460.4,744 456.8,745.9 454.1,747.6C438.3,756.1 423.3,754.6 422.1,747.7C421.2,743 418.2,742.6 417.9,747.1C417.6,752.4 416.2,754.2 412.7,754.4C411.5,754.5 410.4,754.5 410,754.6C409.6,754.6 408.9,754.1 408.5,753.5Z"/>
    <path class="c-open c-stroke" d="M393.7,865.2C390,864.1 383.4,858.3 380.8,853.8C377.5,848.1 373.9,848.5 370.2,854.9C368.7,857.5 366.6,860.2 365.3,861.3C357.4,867.7 356.5,868.1 351.8,869.1C344.2,870.7 342,868.8 343.8,862.1C344.3,860.3 345.1,856.6 345.6,853.6C346.2,850.2 347.3,847.1 348.5,844.8C350.6,841.1 350.6,841.1 350.7,832C350.9,821.8 351.3,817.3 354.5,790C356.6,771.4 358.4,759.5 361.9,741.3L363.7,731.5L366,731C367.3,730.8 369.4,731.5 370.9,732.4C379.7,738.8 393.3,746.6 401.4,749.6C410,752.8 409.8,752.3 407.2,767.2C405.5,776.6 404,788 403.1,797.1C401.7,812.6 399.4,833.1 398.8,834C397.8,835.9 398.3,839.7 400.8,849.7C403.8,862.2 403.8,863.7 401.1,864.3C397.2,865.7 396,865.7 393.7,865.2Z"/>
    <path class="c-open c-stroke" d="M435.2,872C430.2,870 430.3,870.2 430.4,857.7C430.6,850 430.8,846.3 431.4,844.5C432.5,841.5 432.3,837.6 430.3,820.7C428.5,804.8 427.5,789.3 427.2,769.7C426.8,752 426.4,753.1 433.3,753.9C439.2,753.9 447.2,751.5 454,747.4C456.8,745.9 460.3,744.2 462,743.9L464.9,743.5L466.1,755.3C467.7,769.3 471.1,799.9 472.1,807.7C472.6,810.9 473,815.8 473.1,819C473.4,825.1 474.4,827.4 480.1,834.2C481.5,835.9 483.3,838.5 484.1,840.1L485.5,842.9L484,845.8C481.4,850.6 477.6,852.7 472.5,852.2L467.9,851.8L466.3,855.5C460.3,869.2 446,876.7 435.2,872Z"/>
    <path class="c-open c-stroke c-fine" d="M422.2,738.7C421.9,737.9 420.1,737.2 419.9,733.5C419.7,730 419.2,721.5 421.1,718.4C423.1,715.2 430.1,713.3 431.9,712.1"/>
    <path class="c-open c-stroke c-hair" d="M412.2,734.3C409,732.5 398.3,726.1 391.5,721C384,715.9 373.2,708 369.4,705.8"/>
    <path class="c-open c-stroke c-hair" d="M427.7,735.6C429.8,735.3 435.4,735.2 440.7,732.6C446.2,729.4 457.3,719.3 461,716.3"/>
  </g>
  <!-- Jeans scuri -->
  <g id="bottom-jeans-scuri">
    <path class="c-main c-stroke" d="M430.1,879.2C431.2,869 431.2,869.7 429.6,868.3C428.7,867.6 428,866.5 427.9,865.5C427.7,864.7 427.2,862.4 426.7,860.5C425.7,857.1 425.7,856.9 426.5,853.5C427.5,849 427.5,846 426.3,830.3C425.2,815 425,775.5 426,765.1C426.7,757.8 426,741.6 424.2,724.8C423.9,722.3 423.6,718.3 423.4,715.7C422.8,707.6 419.6,706 418,713.1C417.7,714.1 416.6,718.7 415.5,723.1C414.5,727.6 413.4,732.2 413.1,733.5C412.8,734.9 412.4,736.5 412.2,737.1C411.4,739.6 409.3,748.6 408.6,752.8C408.2,755.2 407.3,758.7 406.6,760.7C402.1,773.8 398,839.6 400.9,851C402.5,857 401.1,866.9 398.5,867.9C397.3,868.3 397.7,870.7 399.5,874.1C400.6,876.1 401.3,878.1 401.3,879.3L401.4,881.2L397.9,881.4C393.7,881.6 389.7,880 386.2,876.8C379.2,870.6 372,869 364,872.2C362,873 359.9,873.7 359.5,873.7C359.1,873.7 357.3,874.6 355.6,875.6C348.1,880 338.8,881 338.8,877.2C338.8,876.2 341.4,871.1 342.9,869.3C343.9,868 344.2,866.5 343.4,865.7C340.9,863.2 340.7,853.5 343,849.1C345.1,845.1 345.3,844.3 347.4,829.9C350.3,810.3 354.5,788.1 358.2,772C359.8,765.6 360.9,760.6 361.8,757.1C362.3,755.1 362.9,752.2 363.2,750.6C363.6,749.1 364,747.1 364.3,746.3C365.2,743.1 365.7,733.5 365.7,715.9C365.7,693.1 365.7,693.3 368.2,688.1L370.2,684L370.2,674.2L370.2,664.5L368.6,659.8C365.6,650.5 366.7,637.5 370.6,637.5C371.2,637.5 394,639.9 421.3,641.1L471,636.4L471.6,638.4C472.4,641.2 472.9,652.2 472.9,670.1C472.9,690.9 472.5,696.5 469.9,721C468.4,734.8 468.1,752.7 469.2,763.6C471.1,782.4 474,804.3 476.8,821.1C477.7,826.6 478.6,832.3 478.9,833.8C479.4,837.1 480.5,839.8 482.2,841.9C484.3,844.5 484.8,846.8 484.5,851.4L484.2,855.3L486.1,857C487.1,857.9 488.5,858.8 489.3,859C490.1,859.1 491.6,860 492.6,860.9L494.5,862.4L493.3,863.7C490.6,866.6 487.4,867.6 480.6,867.6C476.9,867.6 473.8,867.9 473,868.3C472.2,868.7 471.1,868.9 470.4,868.9C469.7,868.9 465.3,870.8 460.5,873.2C448.7,879 437.5,882.4 430.2,882.4C430,882.4 430,881 430.1,879.2ZM465.9,860.1C468.9,856.8 469,855.9 466.5,856C461.7,856 459.8,858.3 461.9,861.6C462.9,863.1 463.1,863 465.9,860.1Z" fill-rule="evenodd"/>
    <path class="c-open c-stroke c-fine" d="M424.2,705.9C423.7,705.3 421.8,703.3 421.3,701.8C420.8,700.1 420.6,700.9 421.3,696.2C422,691.5 422.9,678.6 425.6,674C428.3,669.4 435.6,669.3 437.6,668.3"/>
    <path class="c-open c-stroke c-hair" d="M384.8,846.4C383,845.9 377.2,843.7 373.8,843.5C370.4,843.2 366.2,844.7 364.7,844.9"/>
    <path class="c-open c-stroke c-hair" d="M453,848.3C454.7,847.4 460.3,844 463.1,842.9C465.9,841.9 468.6,842.5 469.8,842.4"/>
    <path class="c-open c-stroke c-hair" d="M427.5,662.3C427.6,660.7 427.9,654.3 428,652.7"/>
  </g>
  <!-- Jeans a zampa -->
  <g id="bottom-jeans-a-zampa">
    <path class="c-main c-stroke" d="M395.6,882.4C393.1,882 391.3,881.2 388.7,879C387.5,878.1 385.9,877.1 385.1,876.8C384.3,876.6 382.7,875.8 381.4,875C377.9,872.9 370.4,872.6 364.7,874.4C360.6,875.6 355.9,877.3 353.1,878.6C348.8,880.5 342.4,881.2 341.7,879.8C341.4,879.2 342.2,876.6 342.7,876.6C343,876.6 343.1,876.2 343.1,875.8C343.1,875.3 343.4,874.3 343.8,873.7C345,871.9 345.2,870.4 344.3,869.8C340.3,867 338.9,860.8 341,855.5C342.8,851 343.2,848.6 345.3,832.5C346,827.3 347,820 347.5,816.3C348.1,812.6 348.7,808.5 348.8,807.3C349,806 349.3,804.3 349.5,803.5C349.6,802.7 350,799.8 350.4,797.2C350.8,794.5 351.4,791 351.8,789.1C352.2,787.4 352.7,784.3 353.1,782.3C353.4,780.2 354,777.1 354.3,775.4C354.7,773.5 355.4,769.2 356.1,765.7C356.8,762.1 357.6,757.8 358,756C358.3,754.2 358.8,751.3 359.1,749.7C359.4,748.1 359.9,745.6 360.1,744.2C361.2,738.6 361.3,733 360.9,716.5L361,699.8L362.7,698.5C365.7,696.5 366.3,695.6 366.6,692C366.8,689.8 367.2,688 368,686.4C371.3,679.6 370.3,666.2 365.7,658C363.1,653.4 365,641.5 371.1,628.3C371.7,626.9 372.8,624.7 373.4,623.5C374.6,621 375.5,619.9 376.6,619.4C377.5,619 379,616.8 380.2,613.8C381.4,610.4 384,604.3 384.8,603.3C385.7,602.4 388.3,601.2 388.3,601.7C388.5,606.1 432.1,610 449.8,611.3C457.2,612.7 463.2,613.6 463.6,612.8C464.6,610.4 470.2,620.6 470.9,624C471,624.4 471.4,625.1 471.8,625.6C473,626.9 475.8,630.6 477,632.8C477.5,634.1 477.9,635.6 478.2,636.3C479.8,642.2 478.6,656.7 476.2,674.1C476.1,681.8 476.1,690.3 476.1,692.7C476.2,695 476,699.1 475.8,701.8C475.5,704.4 475.1,708.8 474.8,711.4C474.6,714 473.9,720.2 473.3,724.8C472,735.3 471.7,749.3 472.8,760C473.2,763.9 473.6,768.7 473.8,770.7C474.4,776.9 476,788 478.9,808.6C480.3,818.5 480.9,822.7 482.4,831.3C482.8,833.4 483.4,837 483.8,839.3C484.6,845.1 485,846.1 486.9,849.5C488.9,853.2 489.3,856.3 488.1,858.8C487.3,860.9 487.4,861.3 489.8,862.6C490.8,863.1 492.3,864.1 493.1,864.8C493.9,865.6 494.9,866.1 495.5,866.1C499.5,866.1 494.1,870.3 489.3,870.9C487,871.2 483.5,871 480.1,870.2C477.7,869.6 472.5,870.8 469.5,872.6C468.4,873.3 465.9,874.4 464.1,875C462.3,875.5 459,876.7 456.9,877.6C449.2,880.6 442.4,881.8 433.8,881.7L428.7,881.5L428.6,878.2C428.5,876.2 428.6,874.8 429,874.5C429.2,874.2 429.4,873.5 429.4,872.7C429.4,871.3 429.1,871.1 426.1,870.1C424.4,869.5 422.8,868.1 421.9,866.1C421,864.3 421,863.7 421.6,851.3C421.9,847.1 422.2,840 422.2,835.5C422.4,821.2 422.8,811.4 423.3,796.5C423.5,793.6 423.7,788.6 423.8,785.4C424.3,775.2 425,764.4 425.4,759.2C426.7,745 424,700.7 421.5,699.8C420.5,699.4 418.7,701.4 418.2,703.3C418.1,704.2 417.2,707.6 416.3,711C415.4,714.4 414.2,719.3 413.5,722C412.9,724.6 411.8,729 411.2,731.7C409.2,739.9 408.3,743.9 407.5,748C407.1,750.2 406.5,753.6 406,755.6C405.7,757.7 405,762.5 404.7,766.4C404.3,770.3 404,774.9 403.8,776.6C403,785.6 402.5,793.2 402.2,801.9C401.5,822.2 402.7,851.6 404.5,858.8C405.8,865 403.8,869.8 398.8,872C397.6,872.5 397.4,873.8 398.3,874.7C398.5,874.9 398.7,875.4 398.7,875.8C398.7,876.2 399,876.9 399.4,877.2C400.1,877.9 401.2,881.7 400.7,882.1C400.2,882.6 397.6,882.7 395.6,882.4Z"/>
    <path class="c-open c-stroke c-fine" d="M424.1,696.8C423.7,696.3 421.9,695.6 421.5,693.8C421.1,692.1 421,691.4 421.7,686.2C422.6,681 423.4,668.1 426.6,663.3C429.7,658.6 438.1,657.6 440.5,656.4"/>
    <path class="c-open c-stroke c-hair" d="M434.1,646.2C434.5,643.3 436.1,635.1 436.3,629.6C436.3,624.2 434.9,614.9 434.6,611.8"/>
    <path class="c-open c-stroke c-hair" d="M431.6,655.9C431.7,655 431.6,651.6 432.8,650.4C434.1,649.3 437.6,649.6 439.3,648.9C441.1,648.2 442.1,647.3 443.2,646.1C444.3,645 444.8,646.4 446,641.9C446.9,637.5 445.8,624.8 447.6,621.6C449.2,618.5 456.1,622.1 458,622.7C460,623.3 459,624.3 459.7,624.7C460.4,625.1 461.8,625.3 462.4,625.1C462.9,624.8 463.3,624.5 462.9,623.3C462.6,622 460.6,618.2 460.2,617"/>
    <path class="c-open c-stroke c-hair" d="M405,621.6C404.8,622.2 404.7,623.8 403.7,625.2C402.6,626.5 402.3,628.1 398.7,629.4C395,630.8 385.4,633 381.6,633.5C377.7,634 375.7,634.8 375.8,632.7C376,630.5 381.1,622.6 382.1,620.6"/>
    <path class="c-open c-stroke c-hair" d="M430.5,619.8C427.6,619.4 416.7,617.9 413.5,618.2C410.4,618.6 412.1,620.7 411.3,621.1C410.5,621.6 409.4,621.8 408.6,621.2C407.9,620.5 410.9,618.8 406.8,617.5C402.7,616.4 388.4,615.6 384.8,615.6"/>
    <path class="c-open c-stroke c-hair" d="M358.2,853.1C359.3,852.8 362,851.4 364.3,850.9C366.6,850.3 369.2,850.1 371.8,850.1C374.3,850.1 377.5,850.3 379.7,850.9C381.9,851.4 384.4,852.8 385.3,853.1"/>
    <path class="c-open c-stroke c-hair" d="M449.4,854.5C451.9,853.5 460.2,849.6 464.2,848.5C468.3,847.5 472.1,848.3 473.7,848.2"/>
    <path class="c-open c-stroke c-hair" d="M443.7,618.4C443.8,617.8 445.2,615.8 444.7,614.9C444.1,614 441.2,613.4 440.5,613.2"/>
    <path class="c-open c-stroke c-hair" d="M400.5,620.8C398.2,620.6 388.8,620.3 386.4,620.3"/>
    <circle class="c-dot" cx="442" cy="615.9" r="2.4"/>
  </g>
  <!-- Pantaloni neri larghi -->
  <g id="bottom-pantaloni-neri">
    <path class="c-main c-stroke" d="M395.3,879.6C392.8,879.2 391.5,878.4 388.5,875.8C387.1,874.5 385.1,873.2 384.2,872.8C383.2,872.4 381.9,871.6 381.1,871.1C377.7,868.6 366.4,867.9 361.1,869.8C359.6,870.4 357.2,871.1 355.8,871.6C354.3,872.1 351.7,873.2 350,873.9C344.4,876.7 336.1,875.6 339.4,872.6C339.8,872.2 340.2,871.8 340.2,871.6C340.2,871.4 340.8,870.4 341.5,869.3C343.2,866.6 343.4,865.6 342.5,864.4C339.8,860.6 339.8,855.8 342.2,849.1C343.5,845.4 344.3,842.4 345.5,835.2C349.2,814 349.7,810.8 350.9,805.1C351.6,801.8 352.4,797.7 352.7,796C353,794.2 353.9,789.7 354.6,786C362.5,748.7 363,746.1 363,740.1C363,735.5 362.2,725.4 361.2,716.2C360.8,711.7 359.9,700.8 360,699.6C360,698.9 360.4,698.4 361.4,697.9C365.2,696.1 367.4,692 367,687.9C366.8,686.6 367.1,684.8 367.8,682.4C370.8,670.6 369.9,660.9 365,650.7C364.5,649.5 363.8,647.9 363.7,647.3C363,643.9 369.8,618.2 371.6,616.4C371.9,616.1 385.1,615.1 420.6,615.2L472.3,621.5L473,623.1C479.4,642.8 476.8,674 472.2,717.8C471.4,725.3 470.6,733.8 470.5,736.7C469.8,751.8 474.1,786 481.2,824.1C484,839.7 483.9,839.2 485.9,843C487.8,846.6 488.3,849.6 487.3,853.1L486.8,855.2L487.8,856C488.4,856.5 489.6,857.2 490.5,857.6C492.2,858.4 495,860.6 495,861.3C495,863.9 485.3,866.5 481.2,864.9C478.4,863.8 472.4,865 468.9,867.2C467.9,867.8 466.5,868.5 465.6,868.8C464.8,869.1 461.5,870.6 458.3,872C449.7,875.9 447,876.7 434.7,878.5C425.3,879.9 425.6,880 425.8,875.4C425.8,873.2 426.1,871.5 426.5,870.6C427.4,868.9 426.9,868.1 424.7,867.3C421.3,866.1 420,862.1 420.8,855.2C421.1,852.1 421.3,848.1 421.1,842.4C420.7,822.7 421.4,781.5 422.5,765.8C423.4,752.6 421.4,726.2 419.3,724.9C417.4,723.7 416.1,728.1 412.3,749.3C411.9,751.6 411.2,755.1 410.8,757C409.5,762.8 409.4,763.4 408.5,770.4C405.4,794.2 403.7,815.8 403,838.6C402.8,846 403,850 403.8,857.8C404.3,862.5 401.8,868.2 399,869.2C397.6,869.6 397.5,871.7 398.8,873.2C399.8,874.5 401.2,879.1 400.7,879.4C400.1,879.8 396.9,879.9 395.3,879.6Z"/>
    <path class="c-open c-stroke" d="M421.5,722.2C421.1,721.6 419.3,719.9 418.9,718.7C418.4,717.4 418,719.9 418.8,714.6C419.6,709.3 422.4,694.4 423.4,686.4C424.5,678.5 423.1,671.5 425.5,666.9C428,662.5 436,660.7 438.1,659.5"/>
  </g>
  <!-- Pantaloni marroni -->
  <g id="bottom-pantaloni-marroni">
    <path class="c-main c-stroke" d="M402,879.2C399.5,878.7 398.2,878 394.9,875.1C385.5,866.9 371.7,867 357.1,875.3C352.1,878.1 344.1,878.2 344,875.7C344,874.8 345.5,871.3 347.1,868.5C348.5,866.3 348.6,864.4 347.6,862.7C345.9,859.8 344.9,851.3 345.9,848.3C346.2,847.5 346.6,846.3 346.9,845.5C347.1,844.7 347.6,843.2 348,842.1C348.4,841.1 349,836.7 349.5,832.3C351.4,811.6 355.4,778.6 357.7,765C358.1,762.5 358.1,760.1 357.9,757.4C357.5,754.5 357.5,752.7 358,750.4C358.7,747.5 358.6,747.1 357.7,744.4C356.2,739.8 352.5,730.8 351.1,727.8C350.3,726.4 348.2,722.2 346.3,718.5C344.4,714.8 340.3,707.1 337.2,701.4C328.8,678.2 329.7,665.2 333.8,653.2L336.7,645.9L337.7,646.4C338.2,646.7 339.2,648.2 339.8,649.7C341,653.3 342,653.8 343.3,651.4C345,648.4 346.2,646.9 346.6,647.1C346.8,647.2 359,648.4 376.8,647.7C421.6,641.7 471.8,628.2 474.8,627.5C476.2,627.2 476.5,627.9 481.9,653.4L489.7,676L489.6,688.3C489.7,694.5 489.5,701.6 489.3,707.4C489.1,712.6 489,720.5 489,724.6C489.1,737.7 488.8,752.1 487.9,767.7C487.1,781.1 485.4,814.6 485,826.3L484.6,834.9L486.2,839.8C487.9,845.2 488.3,848.5 487.4,852.2C486.7,855 486.8,855.2 491.3,858.3C496.5,861.8 496.4,861.6 495,863.3C492.6,866 489.9,867 485.5,866.8C476,866.3 477.1,866.1 467,870.9C455.9,876.2 449.5,877.8 439.3,877.3C430.9,876.9 431.4,877.6 432.7,866.4C433,864.3 432.9,864.1 431.7,863.3C428.4,860.6 426.8,852.3 428.5,845.9C429,843.6 429.2,841 428.9,827.1C428.4,809.3 428.5,791.8 429,774C429.2,762.2 429,760.4 427.5,759.7C426.3,759.3 425,761.4 424.4,764.4C414.2,812.1 409.3,839.7 410.3,849.5C411.1,856.3 408.7,864.5 405.6,866.3C404.1,867.2 404.2,867.7 405.9,871.2C407,873.5 408.6,878.6 408.3,878.8C407.9,879.2 403.8,879.5 402,879.2Z"/>
    <path class="c-open c-stroke c-fine" d="M429.9,756.9C429.4,756.3 427.3,754.2 426.8,752.7C426.2,751.1 426,754.5 426.7,747.6C427.3,740.7 429.1,723.1 429,712.2C428.9,701.4 425,687.4 427.7,680.8C431,673.9 442,675.6 445,674.6"/>
    <path class="c-open c-stroke c-hair" d="M392.6,843.5C390.8,843 385.3,840.8 381.5,840.3C377.8,839.8 372,840.7 370.1,840.8"/>
    <path class="c-open c-stroke c-hair" d="M455.3,844.6C456.7,843.9 460.5,841.4 463.9,840.5C467.2,839.6 473.4,839.1 475.3,838.9"/>
  </g>
  <g id="shoes">
    <g id="shoe-left">
      <path class="c-sole c-stroke" d="M363.5,900.2C348.8,898.8 340.4,896.3 339.5,893.1C338.3,888.9 339.3,879.5 341.2,877.6C341.9,876.9 346,879 346,880C346,880.2 347.5,880.7 349.4,881.2C362.2,884.1 378.2,884.5 391.4,882.2C397.4,881.2 398,881 398,880C398,878.8 399.8,877.4 400.9,877.7C404.4,878.8 405.7,892.3 402.6,895.5C400.4,897.7 386.7,900.5 381.7,899.8C378.2,899.3 375.4,899.4 374.8,900C374.3,900.5 367.7,900.6 363.5,900.2Z"/>
      <path class="c-upper-l c-stroke" d="M343.4,877.9C341.3,876.4 344.1,869.7 347.2,868.7C347.8,868.5 349.6,867.4 351.3,866.2C357.5,861.8 359,862 358.8,867.6L358.6,871.2L355.5,872.4C353.5,873.2 351.3,874.6 349.5,876.3C346.3,879.2 345.4,879.5 343.4,877.9Z"/>
      <path class="c-upper-l c-stroke" d="M397.5,876.7C396.5,876.3 395.2,875.4 394.5,874.8C393.8,874.1 392.1,872.9 390.8,872.1L388.3,870.7L388.4,868.2C388.7,863.3 390.3,862.9 394.6,866.9C396.3,868.5 398.1,870 398.5,870.1C399.3,870.4 400.7,876.2 400.2,877.1C399.9,877.6 399.6,877.6 397.5,876.7Z"/>
      <path class="c-upper-l c-stroke" d="M365.2,883.5C356.4,882.8 346,880.9 346,880C346,879.8 347.2,878.4 348.6,877C358.6,867.4 384.2,866 394.4,874.7C395.6,875.7 397.1,876.6 397.8,876.8C399,877.1 399.4,878.2 398.5,878.8C398.2,878.9 398,879.5 398,880C398,881 397.5,881.2 391.4,882.2C386.8,883 375.5,884 372.3,883.9C371.2,883.9 368,883.7 365.2,883.5Z"/>
      <path class="c-tongue c-stroke" d="M358.7,870C358.6,869.4 358.5,867.9 358.7,866.7C358.9,865.3 358.8,864.2 358.4,863.5C356.1,859.8 374.9,856.4 382.8,859.1C388.1,861 391,863.6 389.2,865C388.8,865.4 388.5,866.5 388.5,867.8C388.5,870.7 388.5,870.7 380.5,869.5C372.9,868.4 368.8,868.6 362.8,870.3C359.5,871.2 359.1,871.2 358.7,870Z"/>
    </g>
    <g id="shoe-right">
      <path class="c-sole c-stroke" d="M471,898C469.5,897.8 463.8,897.1 458.2,896.5C430.8,893.6 432.4,894.3 432.1,885C431.9,877.8 432.3,876.3 434.6,876.7C450.4,879.5 493.1,881.3 503,879.6C506.6,878.9 511.1,877.9 513.3,877.2C517,876.1 517.6,892.9 514,894.7C508.2,897.7 483,899.6 471,898Z"/>
      <path class="c-upper-r c-stroke" d="M462,879.5C437.6,877.7 433.3,877 433.1,874.3C432.9,871.7 433.1,871.6 438,871C444.6,870.1 450.3,867.9 458,863.2C461.6,861.1 461.6,861.1 464.2,863.3C465.3,864.3 468.3,866.2 470.7,867.5C476.4,870.5 476.6,870.7 474.6,873.8C473.7,875.1 473,876.8 473,877.5C473,880.2 472.7,880.2 462,879.5Z"/>
      <path class="c-toe c-stroke" d="M474.9,880.1C468.1,879.4 477.4,867.7 487,864.8C488.4,864.4 490.1,863.6 490.6,863.2C491.6,862.2 496.9,863.4 503.4,866.1C509.2,868.5 514.4,874 513.3,876.7C512.4,879.2 487.5,881.5 474.9,880.1Z"/>
      <path class="c-lace c-stroke c-fine" d="M475.3,870.1C475.2,869.9 473.1,868.7 470.7,867.5C461.4,862.7 460.8,861 467.2,857.8L471.2,855.8L477.9,855.8C484.4,855.8 484.7,855.8 485.4,856.9C485.8,857.6 487.4,858.8 488.8,859.8C490.3,860.7 491.5,861.7 491.5,862C491.5,862.6 489,864.5 488.2,864.5C486.6,864.5 481.8,866.7 479.4,868.5C476.8,870.5 475.8,870.9 475.3,870.1Z"/>
    </g>
  </g>
  <g id="arm-left" class="c-idle-arm">
    <path class="c-skin c-stroke" d="M350.6,700.8C332.4,694.9 327.4,674.6 339.3,654.4C341,651.5 341.7,649.7 342,647.4C344.6,628 347.9,608.6 349.9,600.2C351,595.9 352.5,588.2 353.2,583.2C353.9,578.3 355.1,570.6 355.7,566.2C356.4,561.9 357,558.2 357,558.1C357,557.7 361.3,558.5 364.4,559.5C366.2,560 370.4,560.9 373.9,561.5C384.1,563.2 384.2,563.3 384.4,566.2C384.5,567.6 385,569.3 385.5,570C387.3,572.6 389.5,586.2 388.8,590.6C388.1,594.8 386,600.6 379.6,615.4L377.9,619.5L375.7,619.5C373.3,619.5 372.8,620 372.3,623.3C372,624.8 372.2,625.9 372.7,627.1C373.5,628.7 373.4,629 372.2,633.3C370.1,640.7 370,641.1 369.3,646.5C368.6,652.3 369.1,656.7 371.5,664.8C373.9,672.8 373.4,684 370.2,691.6C369.5,693.2 369,695.3 369,696.4C369,698.3 369,698.4 365.9,699.6C364.2,700.2 362.1,701 361.3,701.3C358.9,702.3 354.6,702.1 350.6,700.8Z"/>
  </g>
  <g id="head" class="c-idle-head">
    <path class="c-skin c-stroke" d="M420.2,514C406.2,510.4 389.2,492 398.2,490.3C400.5,489.9 400.9,489.2 401.5,484.9C402.7,475.3 402.1,473.6 396.7,472.6C389.5,471.2 377.9,464.7 372.5,458.8C371.1,457.3 369.8,457.2 366.2,458.3C345.3,464.9 325.7,439.7 337.8,421.9C340,418.7 340.1,417.5 338.3,411C330.7,383.1 340.4,350 361.6,330.9C369.7,323.6 383.9,314.5 387.2,314.5C389.7,314.5 392.1,313.6 393.2,312.3C394.6,310.6 402.4,308.4 407.6,308.2C410.6,308.2 411.8,307.9 412.6,307.2C414.9,305.1 440.8,306.1 443.5,308.3C444.8,309.4 445.3,309.6 447.4,309.3C449.5,309 450.6,309.2 455.5,311C475.9,318.5 490.6,333.1 497.1,352.5C498.8,357.5 499.2,359.2 500.5,366.2C501.1,370 501.2,387.8 500.5,393.8C499.9,399 499.5,401 496.9,411.9C495.4,418.3 494.8,421.7 494.5,427.4C492.9,453.8 469.9,474 438.7,476.4C431.9,477 432,476.8 432,484.8C432,491.1 432.6,493 434.8,493C439.4,493 440.9,505.7 436.9,510.8C433.9,514.6 427.2,515.9 420.2,514Z"/>
    <path class="c-open c-stroke c-fine" d="M365,417.5C364.2,416.9 362.8,414.8 360.5,414C358.2,413.2 353.3,412.5 351,412.5C348.7,412.5 348.2,412.9 346.5,414C344.8,415.1 341.8,418.4 340.8,419.3"/>
    <ellipse class="c-eye c-blink" cx="440.2" cy="408.3" rx="6.4" ry="19.6"/>
    <ellipse class="c-eye c-blink" cx="477.5" cy="407.4" rx="5.9" ry="19.4"/>

    <!-- Capelli: nel gruppo della testa, così seguono il respiro. Stile mostrato di default: chignon -->
    <g id="hair">
      <!-- Spettinati -->
    <g id="hair-spettinati">
        <path class="c-hair-spettinati c-stroke" d="M334.8,450.5C332.2,448.5 330.2,445.7 327.7,440.9C326.2,438 324.9,436.6 323.7,436.3C318.3,435.2 312.7,423.2 312.3,412L312.1,407.8L311.2,407C310.2,406.1 308.6,405.9 307.4,406.8C305,408.4 301.9,409.8 301.5,409.4C300.8,408.7 302.8,397.8 304.4,393.5C304.7,392.9 305.3,391.3 305.7,390.2C306.1,389 306.6,387.8 306.8,387.6C306.9,387.3 307.2,386.5 307.5,385.8C308.8,382.5 314.2,374.8 317.5,371.2C319.9,368.9 319.4,365.9 316.8,365.4C312.8,364.7 302.2,361.8 301.1,361.1C300.5,360.7 301,360.1 304,357.7C310.2,352.4 316.9,348.7 322.5,347.3C326.2,346.5 327.6,346.2 328.7,346.1C331.5,345.8 332.2,343.8 330.9,339.8C328,331 327.8,321.1 330.4,314.1C331,312.5 331.1,312.5 331.6,313.1C335.3,318.3 344.5,329.4 345.4,329.7C347.6,330.6 349.1,329.4 350.3,326C351.8,321.7 356.5,313 359.2,309.7C361,307.4 365.5,302.3 367.1,300.8C372,295.9 382.1,288.6 387.7,285.7C390.4,284.4 391.6,283.7 394.7,282.1C397.5,280.5 405.1,277.5 409.2,276.2C411.9,275.4 412.2,275.4 411.5,277.3C410.9,278.6 410.8,279 409.3,282C408.8,283 408.1,284.5 407.7,285.4C407.4,286.3 407,287.2 406.8,287.5C405.9,289.4 404.4,293.2 403.3,296.1C402.9,297.2 402.4,298.5 402.1,299.1C400.3,302.8 403.4,305.1 407.5,303.1C413.9,299.9 428.2,294.9 433.9,293.8C434.3,293.7 436.7,293.3 439.1,292.8C453.6,289.8 475.7,288.5 490.1,289.6C495.9,290.1 496,290.1 493.1,293.4C492,294.6 491,295.7 490.8,296.1C487.7,300.7 477.4,311.5 474.1,313.6C470.8,315.6 471.4,319 475.2,319.8C476.7,320 484.3,322.1 487.4,323C491.4,324.3 499.2,327.6 503.9,330.2C505.3,331 507.9,332.3 509.6,333.2C517,336.9 534.8,350.9 534.3,352.4C534.1,352.9 530,354 525.6,355C521.5,355.7 514.8,357 512.1,357.5C509.1,357.8 508.8,360.5 511.3,363.3C517.2,369.7 525.1,382.2 527.9,389.4C528.4,390.8 529.1,392.4 529.5,393.3C530,394.4 531.5,398.5 531.5,399C531.5,399.3 530.4,399.4 528.9,399C523,397.7 521.3,397.2 517.2,395.9C508.9,393.5 509,393.5 507.6,394.9C506.6,395.7 506.5,396.9 507,398.6C509,405.5 510.4,418.4 509.4,422.1C509.1,423.1 509.8,423.4 501.4,418.8C500.8,418.5 499.7,417.9 499.1,417.6C494.4,414.9 492,415.3 490.9,418.7C490,421.6 486.3,428.8 485.7,428.8C485.7,428.8 485.7,422.4 485.7,414.8C485.7,400.1 485.6,399.5 484.6,398.3C484,397.6 476.4,392.4 473.8,391C472.5,390.2 469.8,388.5 467.7,387.2C463.8,384.7 459.3,382.1 452.9,378.3C450.9,377.2 448.8,375.8 448.2,375.4C446.2,373.8 443.4,374.7 443,377C442.8,377.9 443.2,379.2 445,383.5C445.6,384.7 446.6,387.4 447.4,389.3C448.2,391.2 449.2,393.7 449.8,395C450.3,396.2 450.6,397.3 450.6,397.4C450.2,397.7 445.2,395.9 441.6,394.3C440.9,394.1 439.2,393.4 437.8,392.8C427,388.4 414.4,380.8 405.5,373.5C402.2,370.8 399.6,371.7 399.3,376C399,378.8 397.4,386.6 396.4,389.4C393.4,398.4 386.1,409.4 382.7,410.5C382,410.7 380.8,411.7 380.4,412.3C380.2,412.8 379.5,415.6 378.7,419.9C377.3,427.5 377,429 376.1,432.9C375.8,433.7 375.6,433.6 374.3,431.6C369.1,424.3 363,419.5 357.6,418.8C341.6,416.6 330.2,432.5 335.6,449.5C336.4,451.9 336.4,451.9 334.8,450.5Z"/>
      </g>
      <!-- Coda e frangia -->
    <g id="hair-coda">
        <path class="c-hair-coda c-stroke" d="M319,498.7C285,494.7 264.4,464 272.6,429.4C272.8,428.5 273.2,426.9 273.4,426C274.1,423 274.2,422.4 273.7,421.4C272.9,419.6 270.8,419.3 268.3,420.7C263.5,423.8 256.9,425.6 251,425.6C248.2,425.6 248.2,425.4 251,422.4C253.8,419.6 259.1,413 260.9,409.9C261.7,408.7 262.8,406.8 263.3,406.1C264.9,403.7 265.9,401.5 267.3,397.9C268,396 268.9,393.5 269.4,392.4C269.9,391.2 270.5,389.6 270.7,388.9C271.2,387.3 272.6,382.3 273.2,379.9C273.9,377 275.4,369.2 276.4,362.5C278.2,350 279,345.4 279.6,342.6C279.8,341.7 280.1,340 280.4,338.9C281.3,334.5 281.7,333.2 283,329.5C287.4,316.5 293.8,306.9 302.4,300.3C303.4,299.6 304.9,298.3 305.6,297.7C321.5,284.2 351.1,290.6 360.5,309.4C362.6,313.7 362.7,313.8 363.5,314.4C364.8,315.4 365.9,315.2 369.4,313.1C377.1,308.6 391.6,302.5 397.1,301.7C397.6,301.6 398.9,301.4 399.8,301.2C400.8,301 402.7,300.6 404.1,300.4C405.5,300.2 407.4,299.9 408.4,299.8C411,299.3 423.4,299.1 426.3,299.5C427.6,299.7 429.4,299.9 430.4,300C434.8,300.6 441.1,302.2 444.5,303.8C454.1,308.1 454.5,308.4 459.2,313C461.8,315.6 462.4,316.1 463.3,316.2C486.7,320 510.2,344.4 515.1,370.2C517.3,381.5 515.4,392 509.5,401.1C505,408.1 501.7,411.4 494.8,415.8C491.6,417.9 491.5,418.4 494,427.9C494.8,430.9 495.7,434.5 495.9,435.9C496.2,437.3 496.6,439.3 496.8,440.3C497.8,445.6 496.7,453.8 494.2,459.9C490.9,467.6 484.8,473.8 476.9,477.6C472.6,479.5 472.7,479.8 476.2,473.6C478.4,469.8 480.5,464.2 482.2,457.8C482.4,457 482.8,455.5 483.1,454.4C483.8,451.8 484.1,450.2 484.4,445.1C485.3,436.4 485.5,433.2 485.7,422C485.9,411 486,409 486.9,403.5C487.1,402.1 487.4,399.7 487.6,398C487.9,396.4 488.3,393.3 488.6,391L489.2,386.9L487.7,383.2C485.5,377.9 484.4,375.5 483.4,373.5C481.2,369.6 476.2,362.3 474.4,360.2C473.8,359.6 472.7,358.2 471.8,357.2C466.2,350 461.2,349 461.2,355C461.2,362.1 456.7,373.6 450.9,381C446.6,386.7 436.5,395.1 431.9,396.9L431,397.3L431.5,395.7C432.1,394 432.7,391.6 433.1,389.3C433.2,388.4 433.4,387 433.6,386.3C435.7,374.5 432.1,370.3 427.1,378.7C421.4,388.6 410.8,399.2 399.6,406.3C397.1,407.9 396.8,409.6 396.3,423.4C395.9,436.6 396.4,446.5 398.1,456.6C398.8,461.2 401.1,468.7 403.6,474.7C405,478 405.1,477.9 402.8,476.9C387.6,470 378.3,453.6 378.2,433.8C378.2,428.5 378.4,426.8 379.4,421.7C380.3,417.6 379.3,416.1 375.7,415.9L373.9,415.8L373.9,414.3C374,410 365.4,406.8 358.8,408.9C346.8,412.4 341.4,425.6 346.8,438.3C347.1,439.2 347.4,439.9 347.3,439.9C346.9,439.9 344.3,437.7 342,435.5C337.3,430.8 335.6,431.3 333.8,438.1C330.9,449.1 331.5,459.9 335.6,469.1C336.3,470.6 336.8,471.8 336.8,471.9C336.8,472.2 334.3,471.7 332.2,471.1C326.7,469.2 320.9,465.2 317.5,460.9C314.5,456.9 311.1,458.2 311.5,463.3C312.5,478 315.9,486.8 324.5,496.7C325.4,497.8 326.2,498.7 326.2,498.8C326.2,499.2 322.3,499.1 319,498.7Z"/>
        <path class="c-open c-stroke" d="M339.5,427.6C338.6,427.2 336.4,428.4 334.2,425C331.9,421.7 327.8,413.3 325.9,407.4C324,401.7 323.1,396.4 322.7,390.4C322.3,384.3 322.6,377.2 323.8,371C324.9,364.7 327,358.7 329.6,353.1C332.3,347.5 334.6,342.9 339.5,337.6C344.4,332.1 355,323.7 359.1,320.7C363.3,317.7 363.6,319.9 364.5,319.7"/>
        <path class="c-open c-stroke c-fine" d="M377.5,408C377.4,407.3 375.3,410 376.7,404.2C378.2,398.2 382.6,381.3 386,372.8C389.4,364.2 395.5,355.9 397.4,352.6"/>
        <path class="c-open c-stroke c-fine" d="M435.2,350.3Q436.7,361.2 429.3,370.6"/>
        <path class="c-open c-stroke c-fine" d="M284.7,401.3Q279.4,409 278,420"/>
        <path class="c-open c-stroke c-fine" d="M457,329.3Q459.6,337.1 462.6,349.1"/>
        <path class="c-open c-stroke c-fine" d="M493.7,390.1Q495,400.1 490.6,416.4"/>
        <path class="c-open c-stroke c-fine" d="M311.6,440.2Q312.2,447.3 308.2,455.9"/>
      </g>
      <!-- Chignon -->
    <g id="hair-chignon">
        <path class="c-hair-chignon c-stroke" d="M478.9,472.4C482.7,466.7 485.6,459.5 487,453.2C489.1,443.9 489.5,438 489.3,425C489.2,415.7 489.5,408.2 490.3,400.8C491.6,390.2 491.7,391 487.8,381.8C484.5,374.2 483.3,371.7 478.2,364.4C475.1,359.8 466.6,350.3 462.9,347.1C453.6,339.4 450.9,338.4 449.7,342.6C447.7,349.7 440.9,360.7 433.8,368.8C432.4,370.2 430.7,372.2 429.8,373.3C428.1,375.3 422.1,380.9 420.1,382.3C419.4,382.9 417.8,384.3 416.6,385.2C412.5,388.5 406.7,392.4 401.6,395.2C397,397.8 397.3,397.1 397.1,404.8C396.9,411.8 396.7,414 395.8,417.8C395.5,419.1 395.1,420.6 395,421.2C394.6,423.1 391.8,430.6 390,434.6C384.5,446.7 385.2,457.4 392.2,470.8C393.6,473.5 393.8,473.4 390.2,472C373.3,465.8 365.7,443.9 373.6,423.7C377.9,412.8 377.1,410.6 367.9,406.8L365.3,405.7L361.7,405.7C351.9,405.7 344.3,412 342.3,421.6C340.4,430.1 343.2,438.1 350.4,444.9C353.6,448.1 353.5,448.1 353,450.7C351.1,459.3 344.5,466.5 336,468.9C333,469.7 333,469.8 334.4,467.5C339,460.2 337.9,456.1 331.8,457.9C310.1,464.1 288.8,445.8 296.8,427.6C297.6,425.8 297.6,424.2 296.8,423.2C296.5,422.9 295.7,422 295,421.1C283.6,407.5 298.1,385.6 318.6,385.6C324.2,385.6 324.4,385.4 324.1,377.8C322.8,348.9 339.1,322.5 368.2,306.3C372.3,304 377.9,301.3 380.1,300.6C380.9,300.3 382.3,299.9 383.1,299.5C384.3,299 386.7,298.2 390.5,297.2C394.4,296 399.9,295 407.1,294C425.7,291.5 448.7,297.4 458,307C459.6,308.7 460.8,309.1 463.9,309.3C472.1,309.9 485.8,316.1 494.7,323.3C504.9,331.3 511.5,339.5 518,351.9C521.1,357.8 524,371.1 523.3,376.7L523.1,378.4L522.1,376.7C521.5,375.7 520.3,374.1 519.5,373.1C518.6,372 517.7,370.9 517.6,370.5C516.5,368.9 513.8,369.1 512.8,371.1C512.3,372 512.3,373.4 512.9,377.2C515,390.3 508.5,406.5 497.1,416C495.1,417.7 495.1,419.4 497,424.8C497.4,425.9 497.9,427.7 498.2,429C498.5,430.3 498.9,432.1 499.1,432.9C503.6,451.2 496.2,467.1 480.9,472.5L478.3,473.4L478.9,472.4Z"/>
        <path class="c-open c-stroke" d="M392.9,395.7C392.3,396.6 391.3,399.5 389.2,400.9C387,402.3 382.4,404.1 379.9,404.5C377.4,404.8 375.4,404 374.3,403.4C373.2,402.9 369.2,409 373.3,401.1C377.3,393.3 392.5,365.8 398.5,355.9C404.5,346.1 407.4,344.3 409.2,342"/>
        <path class="c-open c-stroke" d="M337.1,433.1C335.4,430 328.9,419.2 327,414.7C325,410.1 325.3,409 325.4,405.7C325.4,402.5 324.7,397.3 327.2,395.3C329.8,393.3 336.2,395.2 340.8,393.7C345.5,392.3 352.5,388 354.9,386.8"/>
        <path class="c-open c-stroke c-fine" d="M499.3,348.1Q504.6,357.9 515.2,364.8"/>
        <path class="c-open c-stroke c-fine" d="M496.1,393.4Q497.4,401.1 493.6,416.5"/>
        <path class="c-open c-stroke c-fine" d="M342.7,444.6Q343.7,450.6 334.5,452.6"/>
        <path class="c-open c-stroke c-fine" d="M310,412.6Q304.6,414.9 299.4,426.4"/>
        <path class="c-open c-stroke c-fine" d="M450.7,328.2Q450.9,330.9 450.9,338.3"/>
      </g>
      <!-- Ciuffo scuro -->
    <g id="hair-ciuffo-scuro">
        <path class="c-hair-ciuffo-scuro c-stroke" d="M330.3,433.3C325.4,426.4 324.9,425.3 322.4,418.1C320.4,412.3 318.7,411 316.3,413.3C315.3,414.2 315.2,414.2 315,413.6C312.9,406.6 312.5,399.2 313.9,394.4C314.1,393.8 314.4,392.3 314.7,391.2C315.3,388.4 317.2,382.8 318.3,380.5C319.7,377.7 319.2,375.5 317,375.1C315.9,374.9 315.5,375 311.3,376.7C307.1,378.3 306.7,378.3 307.6,376C307.7,375.6 308,374.7 308.1,373.9C308.3,372.6 309.7,368.5 311.3,364.3C312.2,362 313.6,359.1 315.3,356.4C315.9,355.4 316.4,354.5 316.4,354.5C316.4,354.2 320.5,348.4 321.5,347.2C322.1,346.6 323.3,345.2 324,344.4C324.8,343.5 325.9,342.3 326.6,341.8C330.9,338.2 332,337.6 333.8,336.4C338.8,333.5 341.1,332.8 346.7,332.1C349.9,331.7 351.1,330.8 351.4,328.9C353.4,317 366.8,304.7 383.8,299.3C396.1,295.4 407,294.8 423.8,297.3C425.2,297.5 427.5,297.8 428.8,298C430.2,298.2 432.2,298.5 433.2,298.7C436.8,299.4 438.7,299.6 441.9,299.9C443.6,299.9 446.2,300.2 447.7,300.3C453,300.8 467.1,300.3 471.9,299.4C472.5,299.3 474.2,299 475.6,298.7C479.3,298.1 483.9,297 489.8,295.2C495.8,293.3 495.2,293.4 495,294.4C494,299.9 489.5,307.3 484.6,311.7L482.7,313.5L482.7,314.9C482.7,316.9 483.1,317.2 487.8,318.6C492.2,320 500.7,323.9 504.9,326.6C507.9,328.4 517.4,336.4 519.4,338.8C526.2,346.7 532.1,354.9 531.4,355.5C531.4,355.5 527.4,355.5 522.6,355.4C517.8,355.3 513.8,355.3 513.5,355.4C511.4,356.1 511.1,358.3 512.8,360.8C513.4,361.7 513.9,362.3 513.9,362.4C513.9,362.5 514.2,363 514.6,363.6C515,364.2 515.5,364.9 515.6,365.1C516.4,366.4 519.2,372.3 519.7,373.5C519.9,374.2 520.5,375.7 521,376.9C523.1,381.9 525.3,393.4 524.4,394.3C524,394.7 516,391.8 512.9,390.3C509.9,388.8 507.9,390.1 507.8,393.5C507.5,403.6 505.6,410.7 501.5,416.8L500.1,418.9L497.9,416.8L495.7,414.7L494.3,414.7C492.5,414.7 491.8,415.3 491,417.4C490.7,418.2 490.3,419.3 490.1,419.7C486.9,426.8 487,426.7 487.4,421.2C487.5,419 487.8,415.4 487.9,413.2C489,398.6 488.7,395.4 486,393.4C485.1,392.9 483,391.2 481.3,390C479.6,388.8 477.5,387.3 476.7,386.8C475.8,386.2 473.9,384.8 472.4,383.7C470.8,382.5 468.5,380.8 467,379.8C465.6,378.8 463.8,377.5 463.1,376.9C459.6,374.3 456.4,376.5 457.8,380.7C458.1,381.6 458.5,383.1 458.7,384C459,384.8 459.5,386.4 459.8,387.3C462.2,393.6 462.7,395.2 462.5,395.2C452.7,395.2 427.4,378.9 413.5,363.8L411.8,362L410.4,362C408.2,362 407.4,362.8 407,365.4C405.9,373.9 398.8,389.7 393.3,395.7L392.2,397L391.7,395.7C390.6,393 388,391.9 386.3,393.5C385.5,394.3 385.3,395 384.1,400.2C383.9,401.4 383.4,403.4 383,404.8C382.6,406.3 381.9,409.2 381.4,411.3C381,413.5 380.3,416.5 379.9,418.1C379.5,419.8 379,422.2 378.7,423.4C377.9,427.5 376.9,431.4 376.5,431.8C376.4,431.9 375.8,431.3 375.2,430.5C369.7,423.2 365.9,419.6 361.6,417.7C350.2,412.6 337.5,420.2 333.7,434.5L333,437.2L330.3,433.3Z"/>
      </g>
      <!-- Ciuffo castano -->
    <g id="hair-ciuffo-castano">
        <path class="c-hair-ciuffo-castano c-stroke" d="M334.5,443C333.2,441.7 332.3,440.3 328.6,434.9C327.1,432.6 323.6,425.8 323,423.9C322.3,421.4 319.4,420.5 317.6,422.2L316.9,422.8L316.2,421.8C313.7,417.9 311.8,411.2 311.3,404.1C311.1,401.3 311.4,398.5 312.5,393.2C313.8,387.1 312.7,385.5 308.4,386.7C303.4,388 297.5,388.9 295.8,388.4L294.8,388.2L297.5,384.4C300.1,380.7 301.9,377.9 304.3,373.6C305.2,372 308.2,366 314,353.7C320.7,339.5 330.7,330.6 342.2,328.6C346.3,327.9 346.8,327.7 347.6,326.9C348.4,326.2 349,324.8 349,323.8C349,319.6 356.2,308.7 361.8,304.4C373.8,295.5 386.7,290.3 403.1,288.3C405.9,287.9 409.1,287.8 424.8,287.8C445.8,287.7 448.9,287.5 459.3,285.7C460.8,285.4 462.7,285 463.3,284.9C466.3,284.4 474.4,282.1 477.9,280.6C481.4,279.2 481.3,279.2 481.1,280.4C480.9,281.6 479.8,285.1 479.2,286.5C476.2,293 473.5,296.9 469.6,300.5C466.1,303.8 466.4,306 470.7,306.9C482.7,309.7 496.2,315.9 505.1,322.9C510.9,327.4 513.8,329.9 515.2,331.5C516,332.5 517.2,333.9 517.7,334.7C522.3,340 525.2,344.1 526.5,346.7L526.8,347.4L521.5,347.2C518.6,347.1 514.3,346.9 511.7,346.7C506.7,346.4 506.1,346.4 505.1,347.4C503.9,348.7 504.2,350.5 505.8,352.2C510.6,357.2 517.2,369.1 519.8,377.8C521,381.5 522,386.5 522.2,389.6C522.4,391.8 523,391.9 516.5,389C505,384 502.8,383.8 502.9,388.3C502.9,389.1 503,391.4 503,393.5C503.2,401.2 501.3,408 497.5,413.5C497.1,414.1 496.7,414.7 496.7,414.7C496.7,416 495.9,415.7 493.6,413.5L491.3,411.2L489.7,411.2C487.6,411.2 487,411.8 485.7,415.4C484.9,417.7 482.6,422.3 482.4,422C482.4,422 482.4,420.4 482.6,418.5C483.3,408.2 483.5,394.8 483,393.1C482.6,391.3 475.4,385 466.6,378.4C465.5,377.8 464,376.5 463.1,375.7C462.1,375.1 460.6,373.9 459.6,373.4C458.5,372.7 455.8,371 453.5,369.5C446.7,365.1 444.2,366.1 445.5,372.6C447.4,381.7 444.2,392.8 438.5,396.8L437,397.9L436.9,397.1C436.1,386.7 435.4,385 431.4,384.1C422.5,382.1 413.3,378.2 405.5,373.4C402.5,371.5 400.9,371.3 399.5,372.7L398.6,373.5L398.5,376.9C397.9,388 394.5,398 389,405L388,406.4L386.7,405.2C384.3,402.9 381.9,403.8 381.4,407.1C380.8,412.5 380.6,414 380.2,416.5C379.5,421.6 378.6,426 377.8,427.8L377.5,428.6L376.9,427.6C376.5,427.1 376.2,426.7 376.2,426.7C376.2,425.9 371.2,419.8 368.5,417.3C358,407.4 343,410 336.3,422.8C333.7,427.6 333.2,436.9 335.1,441.7C335.5,442.6 336,444.5 335.9,444.5C335.9,444.5 335.2,443.8 334.5,443Z"/>
        <path class="c-open c-stroke c-fine" d="M383.3,343.4Q385.2,358.5 401.2,367.5"/>
      </g>
    </g>
  </g>
  <g id="torso" class="c-idle-torso">
    <path class="c-shirt c-stroke" d="M406.5,630.5C397.1,629.1 383.9,625.5 382.3,624C382,623.7 381.3,623.5 380.7,623.5C376.9,623.5 377.1,621.1 382.2,609C389,593 389.4,591.3 388.5,582.9C387.7,576.1 386.7,571.7 385.5,570C385,569.3 384.5,567.6 384.4,566.2C384.2,563.3 383.8,563.1 375.3,561.8C372.3,561.3 368.3,560.5 366.3,560C364.4,559.4 361.5,558.7 360,558.4C355.3,557.5 351.5,555.5 351.5,554C351.5,547.5 362,519 367.3,510.9C374.7,499.9 393.5,488.2 395.6,493.4C401,507.3 422,518.7 432.8,513.6C438.2,511 439.3,508.7 438.8,500.7C438.4,494.5 438.5,494.3 441.2,495.1C450.4,497.6 460.4,508.8 465.4,522C475.2,548.5 476.4,553.6 473.1,555.6C472.1,556.2 471.1,556.8 471,557C470.6,557.5 466.2,558.5 464.3,558.5C461.2,558.5 458.8,562.1 458.9,566.7C459.4,580.1 460.8,588.9 464.2,600.9C469.1,617.7 469.7,623 466.5,623C466,623 463.8,623.7 461.6,624.5C445.3,631 425,633.2 406.5,630.5Z"/>
    <path class="c-open c-stroke c-fine" d="M461,554C461.4,553.7 463,553.5 463.5,552C464,550.5 465.1,549.3 464,545C462.9,540.7 458.2,529.2 457,526"/>
    <path class="c-open c-stroke c-fine" d="M388.5,563.5C388.3,562.4 387.2,560.8 387.5,557C387.8,553.2 389.6,543.7 390,541"/>
  </g>
  <!-- Maglietta con fiore -->
  <g id="top-maglietta-fiore">
    <path class="c-main" d="M407.3,686.2C397,682.5 392.4,680.1 383.1,673.2C379,669.2 375.4,664.8 374.8,664.1C373.7,662.8 372.9,658.5 372,649.4C371.8,646.7 371.1,640.4 370.4,635.6C369.2,625.9 369.4,624.1 372.8,614.4C374.4,610 376.1,605.5 376.5,604.2C377,603 379.2,596.6 381.5,589.8C386.9,573.5 386.9,574.6 381.3,569.3C379.5,567.9 375,563.8 371,560.6C366.7,557.4 362.3,555.3 360.7,554.9C357.3,554.4 353.9,551.5 353.9,548.7C353.7,544.6 364.9,518.6 371,507.8C377.4,496.4 395.9,484 398,489.8C407.8,517.8 439.8,521.6 438.8,497.1L438.5,492.3L440.1,492.3C448.2,491.7 460.7,505.5 467.4,521.3C478.6,548.3 479.3,553.2 470.4,557.8C469.3,558.4 468.1,559.7 467.6,560.3C466.4,562.1 462.6,565.9 460.9,567.2C458.8,568.6 458.8,568.6 464.9,602.3C469.8,628.6 473.2,646.8 474,651.5C473.9,652.5 471.6,657.8 467.4,664.8C465.7,666.8 463.4,669.3 462.3,670.4C451.9,680.4 426.3,690 407.3,686.2Z"/>
    <path class="c-accent" d="M416.7,629.2C411.4,625.5 410,613.5 412.9,599.4L413.7,594.7L412.3,591.8C411.6,590.2 410.3,587.7 409.6,586.3C403.7,575 407.6,558.8 415.8,558.2C419.8,557.6 420.5,556.5 421.5,550.2C423.9,534.7 433.1,533.6 435.6,548C436.6,553.6 437.5,554.6 440.6,553.7C449.1,550.9 452.5,566.7 446.7,582.6C444,590 444,590 446.5,598.6C452.1,618.4 444.3,634.6 434.9,622.7C430.9,617.2 430.1,617.2 427.1,623.3C423.4,629.8 420.4,631.5 416.7,629.2ZM433.5,597.1C437.1,592.5 438.1,581.5 436,573.6C431.3,556.7 418.4,570.9 422.5,590.4C424.5,599.7 428.8,602.5 433.5,597.1Z" fill-rule="evenodd"/>
    <path class="c-accent2" d="M426,596.6C420.8,591.2 421.2,575.4 426.2,569.8C430.8,564 436,569.4 436.3,581.2C436.8,593.2 431.2,601.8 426,596.6Z"/>
    <path class="c-open c-stroke" d="M407.3,686.2C397,682.5 392.4,680.1 383.1,673.2C379,669.2 375.4,664.8 374.8,664.1C373.7,662.8 372.9,658.5 372,649.4C371.8,646.7 371.1,640.4 370.4,635.6C369.2,625.9 369.4,624.1 372.8,614.4C374.4,610 376.1,605.5 376.5,604.2C377,603 379.2,596.6 381.5,589.8C386.9,573.5 386.9,574.6 381.3,569.3C379.5,567.9 375,563.8 371,560.6C366.7,557.4 362.3,555.3 360.7,554.9C357.3,554.4 353.9,551.5 353.9,548.7C353.7,544.6 364.9,518.6 371,507.8C377.4,496.4 395.9,484 398,489.8C407.8,517.8 439.8,521.6 438.8,497.1L438.5,492.3L440.1,492.3C448.2,491.7 460.7,505.5 467.4,521.3C478.6,548.3 479.3,553.2 470.4,557.8C469.3,558.4 468.1,559.7 467.6,560.3C466.4,562.1 462.6,565.9 460.9,567.2C458.8,568.6 458.8,568.6 464.9,602.3C469.8,628.6 473.2,646.8 474,651.5C473.9,652.5 471.6,657.8 467.4,664.8C465.7,666.8 463.4,669.3 462.3,670.4C451.9,680.4 426.3,690 407.3,686.2Z"/>
    <path class="c-open c-stroke c-hair" d="M390,577.4C391.5,571.8 395.3,550.1 395.9,544.8"/>
    <path class="c-open c-stroke c-hair" d="M456.6,560.1C456,554.3 454.5,534.9 454.2,530.5"/>
  </g>
  <!-- Felpa con cappuccio -->
  <g id="top-felpa-cappuccio">
    <path class="c-main c-stroke" d="M363.7,646.4C359.4,644.1 345.8,642.7 339.3,643.8C337.3,644.1 337.4,637.7 339.3,627.6C339.7,625.5 339.7,624.8 339.1,623.9C334.3,616.6 335.6,593.6 341.6,580.1C342.6,577.8 344.3,574.1 345.2,572C346.2,569.9 348,563.9 349.3,558.8C354.5,538.2 358.1,526.4 360.6,521.1C363.1,515.9 363.2,515 362.1,512.9C359.5,507.9 362.7,498.8 368.8,494.1C370.7,492.6 371.4,491.7 371.4,490.9C371.4,483.7 382.3,477.6 395.2,477.6L400.4,477.5L400.4,482.5L400.4,487.4L398.5,489L396.6,490.7L398,491.9C398.8,492.6 402.1,495.1 405.2,497.5C411.2,502.1 422.7,512.2 422.7,512.9C422.7,515.6 429.7,521.2 430.9,519.4C432.2,517.4 434.7,512.1 434.7,511.5C434.7,511.1 435.7,508.8 436.8,506.4C440.7,498.3 439.8,494.7 433.2,492C431.3,491.2 430.6,488.4 431,482.8L431.1,480.4L433.8,480.4C441.6,480.6 452.1,486.5 454.9,492.4C455.5,493.5 456.5,495.3 457.3,496.4C459.3,499.1 459.9,501.7 459.3,504.2C458.8,506.2 458.8,506.2 461.3,509C468.9,517.4 473,531.2 479.8,571.6C481.6,582.2 482.8,587 485.6,594.6C491,609.3 492.2,617.2 490.3,624.4C489.2,628.7 489.1,627.7 491.2,638.6C492.3,644.4 491.9,645.2 488.1,645.2C486.6,645.2 483.5,645.7 481.3,646.2C479,646.8 476.2,647.3 475,647.5C472.4,647.8 472.6,648.2 471.7,641.9C471,637.5 471.1,637.6 463.8,639.4C439.2,645.7 398.5,644.8 376.7,637.5C370.5,635.4 368.9,636.1 368.3,640.7C367.5,647.7 367.2,648.1 363.7,646.4ZM414.1,563.4C414.4,563 414.6,561.5 414.5,559.7C414.5,558 414.7,556 415.1,555.2C415.6,554 415.6,553.1 415.2,551.1C414.9,549.7 414.5,542.7 414.3,535.6C413.9,517.5 413.7,515.9 411.6,514.7C409.3,513.5 407,516.5 408.3,519C409.6,521.3 410.2,549 409.1,550.5C408.1,551.7 408.2,553.8 409.1,555.3C409.7,556.2 409.9,557.2 409.7,559.3C409.3,563.4 412,565.9 414.1,563.4ZM450.1,561.7C450.6,561.4 450.7,560.5 450.7,557.9C450.6,555.5 450.7,554.2 451.3,553.4C452,552.3 452,551.9 451.4,548.9C450.7,546.1 447.8,522.5 447.5,517.7C447.2,514 443.3,513 442.6,516.4C442.5,517.3 442.5,518.7 442.8,519.4C443.3,520.7 444.4,527.7 445.3,535.8C445.9,541.5 446,549 445.6,551.1C445.3,552.2 445.4,552.9 446,553.8C446.5,554.6 446.7,556 446.7,558.1C446.7,561.7 448,563.1 450.1,561.7Z" fill-rule="evenodd"/>
    <path class="c-accent c-stroke" d="M410.1,563.1C409.6,562.4 409.5,561.3 409.7,559.3C409.9,557.2 409.7,556.2 409.1,555.3C408.2,553.8 408.1,551.7 409.1,550.5C410.2,549 409.6,521.3 408.3,519C407,516.5 409.3,513.5 411.6,514.7C413.7,515.9 413.9,517.5 414.3,535.6C414.5,542.7 414.9,549.7 415.2,551.1C415.6,553.1 415.6,554 415.1,555.2C414.7,556 414.5,558 414.5,559.7C414.7,563.9 412.1,565.9 410.1,563.1Z"/>
    <path class="c-accent c-stroke" d="M447.6,561.7C446.9,561.3 446.7,560.5 446.7,558.1C446.7,556 446.5,554.6 446,553.8C445.4,552.9 445.3,552.2 445.6,551.1C446,549 445.9,541.5 445.3,535.8C444.4,527.7 443.3,520.7 442.8,519.4C442.5,518.7 442.5,517.3 442.6,516.4C443.3,513 447.2,514 447.5,517.7C447.8,522.5 450.7,546.1 451.4,548.9C452,551.9 452,552.3 451.3,553.4C450.7,554.2 450.6,555.5 450.7,557.9C450.8,562 449.9,563 447.6,561.7Z"/>
    <path class="c-under c-stroke" d="M425.7,516.9C421.6,511.9 421.7,511.5 426.9,511.2C429.3,511 432,510.8 432.9,510.6C435.3,510.2 435.3,511 433.2,515.2C429.8,521.7 429.6,521.8 425.7,516.9Z"/>
    <path class="c-skin" d="M421.5,508C419.5,506.8 417.8,504.8 418.2,504.2C418.6,503.5 434.6,503.5 435,504.2C437,507.5 425.8,510.7 421.5,508Z"/>
    <path class="c-open c-stroke c-hair" d="M473.6,635.1C473,633.4 470.6,628.9 470.2,624.6C469.8,620.3 472.4,615.6 471.2,609.2C470,602.8 464.6,594.3 463.1,586.2C461.5,578.1 461.9,566.2 462.1,560.8C462.3,555.3 463.7,556.6 464,553.6C464.3,550.5 464.7,546.7 464,542.5C463.3,538.4 460.4,530.9 459.7,528.6"/>
    <path class="c-open c-stroke c-hair" d="M366.1,633.7C367.5,631 372.9,623.3 374.3,617.4C375.6,611.5 373.7,602.6 374.3,598.2C374.8,593.8 377,594 377.6,591C378.3,588 376.4,588.4 378.1,580.4C379.8,572.5 386.1,549.6 387.7,543.5"/>
    <path class="c-open c-stroke c-hair" d="M406.3,517C402,515.2 385.9,507.9 380.5,506.1C375.1,504.2 375.7,505.7 373.8,506.1C371.9,506.5 369.8,508.1 369,508.5"/>
    <path class="c-open c-stroke c-hair" d="M392,622.2C392,620.9 390.6,617.2 392,614.5C393.5,611.8 397.7,610.3 400.7,605.9C403.6,601.5 400.8,591.2 409.8,588.1C418.7,585 445.2,583.2 454.4,587.2C463.6,591.2 463.2,607.9 465,612.1"/>
    <path class="c-open c-stroke c-hair" d="M463.5,624.1C459.8,624.8 449.7,627.7 441,628.4C432.3,629.1 421.6,629.4 411.2,628.4C400.8,627.5 384,623.6 378.6,622.7"/>
    <path class="c-open c-stroke c-hair" d="M385.8,539.7C385.4,537.5 384.7,530.4 383.4,526.7C382.1,523 379.8,519.7 378.1,517.6C376.4,515.4 374.1,514.4 373.3,513.7"/>
    <path class="c-open c-stroke c-hair" d="M362.8,626.5C360,626.2 349.2,624.9 346.5,624.6"/>
  </g>
  <!-- Top corto -->
  <g id="top-top-corto">
    <g class="g-arms">
    <path class="c-skin c-stroke" d="M346.9,699.8C330,694.6 325.4,677.6 336.2,657.9C339.1,653.2 339.2,652.9 340.5,647.7C346.4,624.3 348.6,604.5 349.9,594.6C350.1,592.4 350.4,589.6 350.3,588.4C350.3,585.5 350.3,568.6 351,555C358.4,507.9 362.6,500 380.5,494.4C384.7,493.1 384.4,493.1 387.1,497.4C392.9,506.4 395.3,521.9 392.3,531.2C391,535.2 390.7,535.9 389.3,538.4C388.2,540.3 387.4,541.3 386.1,541.9C385.1,542.5 384.3,543.1 384.2,543.2C383.4,544.3 380.7,559.9 380.9,562C381.2,564.2 381.1,564.6 380,565.5C378.9,566.6 378.8,567.4 377.4,577.7C376.7,583.9 375.8,590.7 375.5,593C375.1,595.3 374.7,600.2 374.3,603.9C374,607.6 373.4,611.4 373.2,612.5C372.9,613.9 372.9,614.8 373.4,616C373.7,616.9 373.9,617.7 373.8,618C373.7,618.2 373.1,619.7 372.6,621.3C372.1,623 371.1,625.9 370.5,627.8C364.9,643.5 363.1,655.2 365.7,659.6C370.3,667.2 371.2,679.9 367.9,686.5C367.2,687.8 366.6,689.9 366.5,691.1C366.3,692.3 366.2,693.8 366.1,694.4C365.6,699.1 354.5,702.2 346.9,699.8Z"/>
    <path class="c-skin c-stroke" d="M476.5,694.9C476.1,694.1 476,692 476.2,686C477.9,663.8 479.3,643.3 477.4,634.8C477.2,634 476.7,631.7 476.2,629.7C475,625.3 472.4,618.1 471.3,616C470.9,615.3 470.6,614.1 470.5,613.4C470.2,609.8 466.4,600.2 465.1,600.2C461.2,600.1 457.7,581.1 459.6,567.3C459.9,565.7 460,564.2 459.9,563.8C459.5,563.1 468,555.3 469.5,555C471,554.7 471.9,556.2 472.2,560.6C472.2,562.5 472.7,566.2 473,568.7C473.4,571.3 474.2,577.2 474.8,582C475.5,586.7 476.5,591.9 477,593.5C478.2,597.1 479.6,602.1 480.2,604.4C483.2,616.7 487.1,630.5 490.3,643.4C490.9,646.5 491.8,649.6 492.2,650.4C492.5,651.2 493.5,653.1 494.4,654.8C501.6,669.1 498.7,685.6 487.1,693C482.2,696.1 477.7,696.9 476.5,694.9Z"/>
    <path class="c-skin c-stroke" d="M466.5,526.1C465.2,525.7 460.3,521.1 458.8,518.8C457.7,517.2 452.4,507.5 452.5,507.1C452.5,507.1 451.7,505.6 450.7,503.9C446.9,496.6 450,495 458,500.4C465,505.1 471.9,521.6 468.8,525.8C468.2,526.6 468.1,526.6 466.5,526.1Z"/>
    </g>
    <path class="c-main c-stroke" d="M388.9,583.8C388.5,583.3 388.1,582.1 388,581.1C387.9,580.2 387.7,578.9 387.5,578.2C387.2,577.6 386.7,576 386.3,574.7C384.9,570.1 383.4,566.5 382.3,565.5C380.6,563.7 380.5,561 382.2,551.5C384.2,542.4 383.8,543.1 386.1,541.9C387.4,541.3 388.2,540.3 389.3,538.4C390.7,535.9 391,535.2 392.3,531.2C394.6,523.8 393.1,507.8 389.4,501.4C389,500.6 388.3,499.2 387.8,498.4C387.3,497.5 386.6,496.3 386.1,495.8C384.4,493.8 385.1,492.8 389,491.7C392.2,490.8 392.3,490.8 392.8,491.5C406.4,513.4 417.7,521.7 431.8,521.1C443.2,520.5 447.1,513.6 442.8,501.7C440.2,494.4 440.5,493.4 444.8,494.6C448.4,495.6 449.5,496.7 449.3,498.9C449.2,500.4 449.6,501.5 450.7,503.9C451.7,505.6 452.5,507.1 452.5,507.1C452.4,507.5 457.7,517.2 458.8,518.8C460.5,521.3 465.3,525.6 467,526.3C468.3,526.8 468.8,527.3 469.4,528.7C469.7,529.8 470.6,531.8 471.4,533.4C473.6,538.3 474.1,543 472.5,547.3C472,548.7 471.3,550.9 470.8,552.3C470.3,554.1 469.8,554.9 469.1,555.1C466.8,555.8 460,562.9 459.8,564.8C459.8,565.8 459.5,568.6 459.3,570.9C459.1,573.3 459,576.9 459.1,579.1C459.1,581.3 459,583.2 458.7,583.3C458.1,583.7 435.8,584.3 411.9,584.5L389.7,584.8L388.9,583.8Z"/>
    <path class="c-skin" d="M423.6,518.4C418.3,516.9 415.8,515.4 411.1,511.5C402.5,504 401.8,504.4 423.4,504.4L441.3,504.4L441.7,505.4C445.6,514.9 435.9,521.9 423.6,518.4Z"/>
  </g>
  <!-- Maglietta scollo a V -->
  <g id="top-maglietta-v">
    <path class="c-main c-stroke" d="M414.7,626.6C402.8,625.2 395,623.6 387,621.3C383,620.1 381.2,619.4 376,617.3C374.8,616.9 373.3,616.3 372.7,616.2C371.5,615.8 371.5,615.5 372.8,611.5C373.4,609.9 373.8,609.1 374.5,608.9C375.6,608.4 377.2,606.2 383,596.7L385.5,592.6L385.2,589.5C384.8,585.5 382.6,579.1 381,577.6C379.7,576.3 379.5,573.4 380.3,569.5C381,566.1 381.5,566.3 358.5,559.9C357.3,559.5 355.6,559 354.7,558.7C353.8,558.4 352.3,558.3 351.4,558.4C345.8,559.1 344.6,556.6 346.9,548.7C359.5,507.5 364.8,498.8 384.5,487.8C389.8,485 390.3,484.9 390.6,487C390.8,487.8 391.3,489.1 391.8,489.9C399.6,501.9 406.6,509.1 417,516C427.1,523 433.8,525.7 435.7,523.4C441.6,516 443.4,503.1 439.4,493C438.8,491.4 438.2,489.5 438.2,488.8L438.2,487.5L440,488C450.6,490.7 463.1,503.5 468.4,516.9C470.7,523.1 470.8,523.3 473.8,534C474.4,535.9 474.5,535.8 471.4,537.8C470.9,538.2 470.8,538.4 471.1,538.8C471.3,539.1 471.6,539.9 471.7,540.5C471.7,541.2 472,543 472.2,544.6C472.6,546.3 472.7,549.4 472.5,552.4L472.4,557.3L471.2,558C470.5,558.3 469.6,559.5 469.1,560.5C468.5,561.5 466.6,563.8 464.6,565.8C461.6,568.8 461.2,569.3 461.5,570.3C461.7,570.9 461.5,572.9 461.3,574.7C460.7,579.1 459.9,585.6 459.8,587.7C459.7,588.9 459.9,589.9 460.5,591.2C462.5,595.1 465.9,601.7 466.7,603.1C468.9,607.3 472.5,617.1 472.1,617.8C469.2,623.1 432.7,628.7 414.7,626.6Z"/>
    <path class="c-skin" d="M427.4,519.6C419.6,515.7 407.4,507 407.5,505.3C407.5,504.8 409.7,504.6 423.6,504.3L439.5,504.8L439.6,507.7C439.4,513.9 435.6,522.2 433.1,522.2C432.6,522.2 430.1,521 427.4,519.6Z"/>
    <path class="c-open c-stroke c-fine" d="M470.2,536.6C468.4,534.2 461.8,525.6 459.9,522.2C458,518.7 458.7,517.3 458.4,516.4"/>
    <path class="c-open c-stroke c-hair" d="M383.9,566.5C383.8,565.7 382.9,565.6 383.4,561.8C383.8,557.8 385.8,545.2 386.3,541.6"/>
  </g>
  <!-- Cardigan -->
  <g id="top-cardigan">
    <path class="c-main c-stroke" d="M397.1,674C393.7,673.7 387.7,672.9 383.5,672.4C375.5,671.2 376,671.5 375,666.8C374.6,659.7 373.6,653 371.8,646.3L370.8,641.5L373.1,631.3C373.9,626 374.9,620.1 375.2,617.9L375.7,614L373.9,613.1C366.1,609.4 352.9,611.5 347.3,616.8C346.7,617.3 346.1,617.8 345.9,617.8C344.8,618 342,611 340.9,605.7C340.2,602.7 339.9,601.9 339.2,601.2C337.3,599.1 336.6,597.4 335,590.9C333.4,584.2 333.3,583 334,577.9C334.5,574.4 334.8,567.7 335.1,559.7C348.3,518.5 364.4,497.8 387.4,484.7C393.7,481.7 394.8,481.6 394.6,483.6C394.4,485.5 399,497.7 401.8,501.6C402.6,502.7 403,503.6 402.9,504.3C402.8,505 403,505.8 403.1,506.1C404.3,507.7 408,513.3 411.8,518.7C414,522.2 416.2,525.6 416.5,526.1C417.2,527.2 420.7,534.5 422.6,539C426.4,548.3 428.4,559.2 428.7,573.3C428.7,576.7 428.8,585.8 428.7,593.6C427.5,608.1 426.4,614.9 422.4,632.6C420.1,643.5 419.2,647.6 416.4,662.5C415.4,673.7 415.3,674 414.1,674.4C412.2,675 403.4,674.7 397.1,674Z"/>
    <path class="c-under c-stroke" d="M422.4,646.3L419.8,646.1L420.2,643C420.4,641.2 421.2,637.6 421.8,634.9C424.1,626.1 427.5,607.9 428.7,593.6C428.8,585.8 428.7,576.7 428.7,573.3C428.4,559.2 426.4,548.3 422.6,539C420.7,534.5 417.2,527.2 416.5,526.1C416.2,525.6 414,522.2 411.8,518.7C409.5,515.3 406.7,511.4 405.8,510.1C404.8,508.7 403.7,507.1 403.4,506.5C401.7,503.2 403.7,502.5 407.4,505.1C428.6,518.2 445.5,518.3 446.8,504.8C446.8,503.3 447,502.1 447.2,502C447.8,501.6 449.8,502.6 450.6,503.7C452.3,506.3 453.8,508.8 453.8,508.9C453.8,509 454.6,510.6 455.7,512.4C457.5,515.6 458.5,518 462.6,527.7C470.2,545.1 472.5,557.3 470.7,570.8L470.3,574.8L472.8,583.4C474.1,588.2 475.9,594.6 476.7,597.8C478.7,607.4 479.3,613.1 478,623.3C474.1,633.9 474,634.3 472,634.9C471.4,635 470.1,635.7 469.1,636.4C459.6,642.8 437.7,647.2 422.4,646.3Z"/>
    <path class="c-main c-stroke" d="M472.9,677.4C472.8,677.2 472.8,667 472.4,650.6C477.8,624.6 479.6,613.1 476.7,597.8C475.9,594.6 474.1,588.2 472.8,583.4L470.3,574.8L470.7,570.8C472.5,557.3 470.2,545.1 462.6,527.7C458.5,518 457.5,515.6 455.7,512.4C454.6,510.6 453.8,509 453.8,508.9C453.8,508.8 452.3,506.4 450.6,503.7C450.1,503.1 449.3,502.4 448.8,502.2C448.2,501.9 447.4,501.2 447,500.4C445.8,498.3 442.6,494.4 440.1,491.8C438.9,490.5 438,489.3 438,489.1C438,488.9 437.7,488.6 437.4,488.4C436.5,487.8 437.8,487 439.1,487.3C450.8,491.3 467.9,504.4 474.1,514.2C478.6,522.2 480.8,527.5 480.2,529.2C480,529.8 480.7,531.2 484.5,537.6C488.7,544.3 490,548.5 490.2,554.9C490.8,562.8 490.7,564.2 489.9,564.4C489.6,564.6 488.9,565.4 488.4,566.2C487.9,567.1 487.1,568.9 486.3,570.1L485.1,572.5L486.9,577.8C487.9,580.8 489,583.9 489.4,584.8C490.1,586.6 492.5,593.1 494.6,599.4C495.3,601.7 496.1,605.1 496.5,606.9C496.8,608.7 497.1,610.4 497.2,610.6C497.4,610.9 497.7,613.1 497.9,620.1C497.3,627.4 495,640.6 493.8,653.4C493.3,669.5 493.2,669.9 490.6,672.6C489.2,674 488.5,674.3 480.1,676.7C476.6,677.9 473.3,678.2 472.9,677.4Z"/>
    <path class="c-main c-stroke" d="M497.9,616.9C497.8,616 497.7,614.8 497.7,614C497.8,613.3 497.6,612.1 497.4,611.3C497.2,610.6 496.8,608.6 496.4,606.7C496.1,605 495.3,601.7 494.6,599.4C492.5,593.1 490.1,586.6 489.4,584.8C489,583.9 487.9,580.8 486.9,577.8L485.1,572.5L486.3,570.1C487.1,568.9 487.9,567.1 488.4,566.2C489.9,563.4 492.1,564.1 493.1,567.5C494.3,572 496.9,578 499.3,582.4C502.2,587.9 504.9,595.5 506.1,602.1C506.4,604.1 507,607.4 507.4,609.4C508.4,616.2 507.7,619.7 505.7,618.7C505.3,618.6 503.7,618.4 502,618.4C498.2,618.5 498.2,618.6 497.9,616.9Z"/>
    <path class="c-main c-stroke" d="M340.3,651.4C340,650.6 339.2,649.5 338.6,648.9C337.6,648.2 337.3,647.5 337.1,645.8L336.7,643.7L338.6,639.6C341.3,632.7 343,627.1 344.3,623.3C344.5,622.7 344.7,621.8 344.7,621.4C344.8,620.4 346.1,619.2 346.9,619.3C347.7,619.5 348.6,620.8 350,623.6C350.5,624.9 351.5,628.4 351.6,631.9L349.5,640.9L346.9,645.6C342.5,653.5 342.6,653.3 341.7,653.1C341.2,653 340.6,652.3 340.3,651.4Z"/>
    <path class="c-skin" d="M429.9,511.8C424.5,510.7 412.3,506.3 412.9,505.4C413,505.1 417.4,504.9 429.1,505L443.9,506.3L443.9,507.5C443.7,511.5 437.3,513.6 429.9,511.8Z"/>
    <path class="c-open c-stroke c-hair" d="M378.4,613.1C378.2,612.5 377.6,612.4 377.7,609.9C377.7,607.6 377.8,601.8 378.3,598.8C378.9,595.8 381,594.3 381.2,591.7C381.4,589.3 378.1,590.9 379.4,583.6C380.6,576.3 386.3,554.8 386.7,546C386.9,537 386,535.7 385.9,533.7"/>
    <path class="c-open c-stroke c-hair" d="M476.2,528.4C474.9,526.2 469.4,518 468.1,516"/>
    <path class="c-open c-stroke c-hair" d="M373.4,596.6C372.2,596.3 368.8,595.1 366,594.8C363.2,594.4 360.9,593.8 357.2,594.5C353.5,595.3 346.2,598.5 344,599.3"/>
    <path class="c-open c-stroke c-hair" d="M374.6,580.7C374.1,580.2 373.8,579.2 371.1,578.1C368.2,576.9 359.8,574.3 357.5,573.6"/>
    <path class="c-open c-stroke c-hair" d="M485.8,613.6C486.3,613.3 488.1,612.7 488.4,611.8C488.8,611 488.3,609.2 487.9,608.3C487.4,607.5 486.3,607 486,606.7"/>
    <path class="c-open c-stroke c-hair" d="M479.3,650.3C478.9,649.8 477.4,648.9 477.1,647.7C476.7,646.5 476.7,644.4 477.1,642.9C477.5,641.7 479.1,640.3 479.6,639.9"/>
  </g>
</svg>
