<svg xmlns="http://www.w3.org/2000/svg" viewBox="599.9 402 184.2 221.8">
  <title>Maglietta verde</title>
  <g id="garment">
    <path class="c-main c-stroke" d="M689.2,619.1C680.8,618.7 670,617.9 667.6,617.5C663.7,616.9 658.8,616.8 657.5,617.2C656.7,617.4 656.1,617.1 654.8,615.9L653.1,614.3L653.1,600.6C653.1,593 653.3,582.5 653.6,577.3C654.2,566.5 656.3,537.8 656.7,534.6C657,532.1 657.2,532.2 648.7,530C645.7,529.2 639.5,527.4 634.9,526C630.4,524.5 625.9,523.3 625,523.3C624.1,523.3 622.7,523 621.9,522.6C620.6,521.9 619,521.2 610.1,517.9C604.9,516 603.9,513.6 606,508.4C606.2,507.9 607.6,503.8 609,499.3C610.5,494.9 612.7,488.1 614.1,484.3C615.4,480.5 617.2,475.7 617.9,473.6C631.1,436.1 642.6,420.6 664.5,410.4C665.4,410 667.2,409 668.5,408.3C672.1,406.3 674.4,406 675,407.7C683.2,429.1 717.3,434.9 717.6,415L717.6,409.9L719.7,409.8C721.5,409.6 722.3,409.9 724.7,411.4C726.2,412.4 728.6,413.9 729.9,414.6C742.5,421.9 751.7,432.8 757.2,446.8C758,449 759.1,451.8 759.6,452.9C760.1,454.1 760.9,456.3 761.5,457.8C762,459.3 762.9,461.7 763.4,463C765.9,469.8 771.8,487.8 777.4,505.1C780.1,513.6 780.1,513.6 770.9,518.6C768.1,520 765.5,521.6 765,522C764.5,522.4 763.2,522.9 762,523.1C760.8,523.3 759.4,523.7 758.9,524.1C758.4,524.4 757.1,524.8 756.2,525C753.3,525.5 753.1,528.2 754.8,541.9C755.1,544.1 755.6,548.4 755.8,551.4C756,554.4 756.5,559.2 756.7,562.1C757,565 757.4,569.9 757.7,573C758,576.2 758.4,580.9 758.6,583.5C759.8,595.3 760.1,599.1 760.6,605.1C761.4,615.4 762.4,614.7 742.7,617.1C726.8,619 703.7,619.8 689.2,619.1Z"/>
    <path class="c-skin" d="M698.3,424.2C693.6,423.1 685.4,418.6 685.4,417C685.4,416.4 687.5,416.3 700.3,416.4L715.1,416.6L715.3,417.6C716,422.7 707.1,426.2 698.3,424.2Z"/>
    <path class="c-open c-stroke c-hair" d="M750.6,521.9C750.9,521.3 753.3,529.1 752.5,518.6C751.6,508 746.5,468.6 745.3,458.6"/>
    <path class="c-open c-stroke c-fine" d="M662.1,533.3C662.4,531.8 663.1,534.4 664,524.3C665,514.1 667.2,481.1 667.8,472.4"/>
  </g>
  <g id="backlay">
    <path class="c-main c-stroke" d="M652.4,615.9L650.7,614.3L650.7,600.6C650.7,593 650.9,582.6 651.2,577.5C651.9,565.2 653.4,543.3 654.1,537.4C654.5,533.1 654.5,532.7 653.7,532.1C652.5,531.2 653.9,531.1 655.7,532C656.9,532.5 657,532.7 656.7,534.6C656.3,537.8 654.2,566.6 653.6,577.3C653.3,582.5 653.1,593 653.1,600.5L653.1,614.2L654.5,615.7C657,618.2 655,618.4 652.4,615.9ZM755.8,616.2C755.8,616 756.7,615.4 757.7,614.9C761.6,613.2 761.6,614.3 758.6,583.5C758.4,580.9 758,576.2 757.7,573C757.4,569.9 757,565 756.7,562.1C756.5,559.2 756,554.4 755.8,551.4C755.6,548.4 755.1,544.1 754.8,541.9C753.3,529.8 753.4,525.2 755.2,525.2C756,525.2 756.1,525.8 756.2,529.4C756.2,531.7 756.6,536.3 757,539.7C757.4,543.1 757.9,548.4 758.2,551.4C758.4,554.4 758.8,559.2 759.1,562.1C759.4,565 759.8,569.9 760.1,573C760.3,576.2 760.7,580.9 761,583.5C762.9,603.5 763.5,611.2 763.1,612.3C762.6,614.1 755.8,617.7 755.8,616.2ZM634.9,526.8C632.8,526.1 631.2,525.3 631.2,525.1C631.2,524.8 631.5,524.8 631.8,524.9C632.1,525 633.9,525.6 635.8,526.2C637.7,526.8 639.3,527.5 639.3,527.7C639.3,528.2 639.1,528.2 634.9,526.8Z" fill-rule="evenodd"/>
  </g>
</svg>
