<svg xmlns="http://www.w3.org/2000/svg" viewBox="88.3 653.7 124.7 123.2">
  <title>Maglietta con fiore</title>
  <g id="garment">
    <path class="c-main" d="M143.2,771.4C134.8,770.6 131.2,770 124.1,768.3C120.9,767.5 117.9,766.9 117.4,766.9C116.5,766.9 115.7,765.3 114.6,761.6C114.3,760.5 113.3,758.1 112.4,756.3C110.5,752.4 110.5,751.4 112.3,744.5C113.1,741.5 114,738.4 114.2,737.6C114.4,736.8 115.5,732.6 116.7,728.2C119.6,717.8 119.7,718.4 114.5,716.4C112.9,715.9 109,714 105.7,712.3C102.2,710.5 98.8,709.2 97.5,709C94.9,708.6 92.3,706.4 92.3,704.4C92.3,701.4 102.8,683 108.9,675.2C115.4,667 132.7,657.7 134.2,661.6C141.4,680.1 173.3,683.8 171.8,666L171.6,662.7L173.1,662.7C180.6,662.7 192.5,674.1 199.2,687.5C208.6,706.6 209,709.4 202.1,711.7C201.2,712 200.2,712.6 199.8,712.9C198.8,713.7 195.5,715.3 194,715.7C192.1,716.1 192.1,716.1 194.4,731.5C196.2,744.2 197.9,756 198.7,761.4C199,763.9 197.2,765.6 193.6,766.3C192.2,766.6 190.4,767.2 189.6,767.5C181.6,771 159.5,772.9 143.2,771.4Z"/>
    <path class="c-accent" d="M150.6,739.9C145.8,738.7 144,733.3 146.1,726.3L146.7,724L145.2,722.7C144.4,722 143,720.9 142.2,720.3C135.6,715.3 139.3,705.9 148.2,705C152.5,704.6 153.3,704 154.4,700.4C157.1,691.1 166.7,691.2 169.6,700.6C170.7,704 171.6,704.7 174.9,704.8C183.7,705.1 186.6,714.2 180,720.4C177,723.2 177,723.2 178.7,727.3C182.3,736.4 174.7,742.5 167,736.6C163.5,734 162.7,734 159.9,736.7C156.6,739.8 153.9,740.7 150.6,739.9ZM166.4,725.1C170.1,723.4 171.6,718.5 169.7,714.4C165,704.9 151,711.8 155.5,721.5C157.5,725.9 161.7,727.3 166.4,725.1Z" fill-rule="evenodd"/>
    <path class="c-accent2" d="M159,724.5C153.8,721.9 154,714.1 159.4,711.4C164.4,708.8 169.8,712.3 169.8,718.1C169.8,723.7 164.1,727.1 159,724.5Z"/>
    <path class="c-open c-stroke" d="M143.2,771.4C134.8,770.6 131.2,770 124.1,768.3C120.9,767.5 117.9,766.9 117.4,766.9C116.5,766.9 115.7,765.3 114.6,761.6C114.3,760.5 113.3,758.1 112.4,756.3C110.5,752.4 110.5,751.4 112.3,744.5C113.1,741.5 114,738.4 114.2,737.6C114.4,736.8 115.5,732.6 116.7,728.2C119.6,717.8 119.7,718.4 114.5,716.4C112.9,715.9 109,714 105.7,712.3C102.2,710.5 98.8,709.2 97.5,709C94.9,708.6 92.3,706.4 92.3,704.4C92.3,701.4 102.8,683 108.9,675.2C115.4,667 132.7,657.7 134.2,661.6C141.4,680.1 173.3,683.8 171.8,666L171.6,662.7L173.1,662.7C180.6,662.7 192.5,674.1 199.2,687.5C208.6,706.6 209,709.4 202.1,711.7C201.2,712 200.2,712.6 199.8,712.9C198.8,713.7 195.5,715.3 194,715.7C192.1,716.1 192.1,716.1 194.4,731.5C196.2,744.2 197.9,756 198.7,761.4C199,763.9 197.2,765.6 193.6,766.3C192.2,766.6 190.4,767.2 189.6,767.5C181.6,771 159.5,772.9 143.2,771.4Z"/>
    <path class="c-open c-stroke c-hair" d="M122.7,719.3C123.5,715.9 126.7,702.3 127.5,698.9"/>
    <path class="c-open c-stroke c-hair" d="M190.7,711.7C190.3,708.5 188.4,695.9 187.9,692.7"/>
  </g>
</svg>
